<?xml version="1.0" encoding="UTF-8"?>
<!DOCTYPE svg PUBLIC "-//W3C//DTD SVG 1.1//EN" "http://www.w3.org/Graphics/SVG/1.1/DTD/svg11.dtd">
<svg xmlns="http://www.w3.org/2000/svg" version="1.1" width="2165px" height="2165px" style="shape-rendering:geometricPrecision; text-rendering:geometricPrecision; image-rendering:optimizeQuality; fill-rule:evenodd; clip-rule:evenodd" xmlns:xlink="http://www.w3.org/1999/xlink">
<g><path style="opacity:0.99" fill="#000000" d="M 1074.5,-0.5 C 1079.5,-0.5 1084.5,-0.5 1089.5,-0.5C 1390.3,6.71084 1646.47,116.044 1858,327.5C 2056.62,537.012 2158.79,787.012 2164.5,1077.5C 2164.5,1080.5 2164.5,1083.5 2164.5,1086.5C 2158.29,1387.97 2049.29,1644.8 1837.5,1857C 1627.25,2056.76 1376.25,2159.26 1084.5,2164.5C 1082.83,2164.5 1081.17,2164.5 1079.5,2164.5C 787.75,2159.26 536.75,2056.76 326.5,1857C 114.712,1644.8 5.71154,1387.97 -0.5,1086.5C -0.5,1083.5 -0.5,1080.5 -0.5,1077.5C 6.40927,766.007 121.743,503.173 345.5,289C 551.512,101.997 794.512,5.49722 1074.5,-0.5 Z"/></g>
<g><path style="opacity:1" fill="#fefefe" d="M 1051.5,56.5 C 1330.48,52.51 1572.81,143.343 1778.5,329C 1973.32,513.174 2082.16,739.674 2105,1008.5C 2120.92,1286.07 2040.92,1531.4 1865,1744.5C 1696.86,1939.53 1484.69,2057.03 1228.5,2097C 963.964,2131.86 721.298,2075.19 500.5,1927C 310.328,1793.29 178.495,1615.79 105,1394.5C 41.0968,1188.36 40.4301,982.026 103,775.5C 184.056,528.17 335.222,336.67 556.5,201C 709.199,110.824 874.199,62.6574 1051.5,56.5 Z"/></g>
<g><path style="opacity:1" fill="#020202" d="M 1206.5,514.5 C 1208.71,515.956 1211.04,517.456 1213.5,519C 1215.5,519.333 1217.5,519.667 1219.5,520C 1223.35,523.426 1227.68,526.093 1232.5,528C 1234.33,531.167 1236.83,533.667 1240,535.5C 1245.36,542.189 1250.69,548.856 1256,555.5C 1259.92,562.107 1262.75,569.107 1264.5,576.5C 1265.64,584.354 1267.3,592.188 1269.5,600C 1269.37,601.059 1268.87,601.892 1268,602.5C 1267.5,610.493 1267.33,618.493 1267.5,626.5C 1265.3,633.321 1263.64,640.321 1262.5,647.5C 1262.5,648.167 1262.5,648.833 1262.5,649.5C 1257.45,654.288 1255.12,660.288 1255.5,667.5C 1254.83,667.5 1254.5,667.833 1254.5,668.5C 1252.65,670.03 1251.65,672.03 1251.5,674.5C 1247.22,680.076 1244.88,686.409 1244.5,693.5C 1243,702.284 1242.33,711.284 1242.5,720.5C 1242.67,726.5 1242.83,732.5 1243,738.5C 1243.2,740.382 1243.7,742.048 1244.5,743.5C 1244.5,744.833 1244.5,746.167 1244.5,747.5C 1244.01,754.199 1245.01,760.532 1247.5,766.5C 1249.1,773.818 1251.43,780.818 1254.5,787.5C 1255.45,791.495 1256.79,795.329 1258.5,799C 1258.17,799.5 1257.83,800 1257.5,800.5C 1253.14,795.646 1248.98,790.646 1245,785.5C 1244.33,784.748 1243.5,784.414 1242.5,784.5C 1239.23,776.949 1235.23,769.949 1230.5,763.5C 1227.39,760.598 1225.89,756.932 1226,752.5C 1224.55,749.418 1223.05,746.418 1221.5,743.5C 1219.39,733.896 1217.56,724.229 1216,714.5C 1215.6,705.16 1215.76,695.827 1216.5,686.5C 1218,681.036 1219.16,675.369 1220,669.5C 1220.5,663.5 1221,657.5 1221.5,651.5C 1221.5,649.304 1221.16,647.304 1220.5,645.5C 1220.17,645.5 1219.83,645.5 1219.5,645.5C 1219.5,641.5 1219.5,637.5 1219.5,633.5C 1220.16,632.036 1220.49,630.369 1220.5,628.5C 1219.54,623.683 1218.54,619.016 1217.5,614.5C 1217.46,610.021 1216.63,605.688 1215,601.5C 1211.94,597.431 1209.27,593.098 1207,588.5C 1202.21,584.388 1197.04,580.721 1191.5,577.5C 1189.92,576.702 1188.26,576.202 1186.5,576C 1185.18,570.897 1183.18,566.064 1180.5,561.5C 1176.97,559.474 1174.31,556.641 1172.5,553C 1169.91,551.555 1167.24,550.388 1164.5,549.5C 1159.57,544.61 1153.57,541.943 1146.5,541.5C 1143.94,540.782 1143.28,539.449 1144.5,537.5C 1150.43,531.824 1156.77,526.657 1163.5,522C 1167.5,521 1171.5,520 1175.5,519C 1176.07,517.795 1176.74,516.628 1177.5,515.5C 1178.61,516.022 1179.77,516.355 1181,516.5C 1189.5,515.781 1198,515.114 1206.5,514.5 Z"/></g>
<g><path style="opacity:0.478" fill="#383838" d="M 1144.5,537.5 C 1143.28,539.449 1143.94,540.782 1146.5,541.5C 1153.57,541.943 1159.57,544.61 1164.5,549.5C 1162.69,548.37 1160.69,547.704 1158.5,547.5C 1154.73,546.857 1151.06,545.857 1147.5,544.5C 1144.95,544.018 1142.62,543.018 1140.5,541.5C 1140.97,539.192 1142.3,537.858 1144.5,537.5 Z"/></g>
<g><path style="opacity:0.241" fill="#595959" d="M 1206.5,514.5 C 1198,515.114 1189.5,515.781 1181,516.5C 1179.77,516.355 1178.61,516.022 1177.5,515.5C 1176.74,516.628 1176.07,517.795 1175.5,519C 1171.5,520 1167.5,521 1163.5,522C 1156.77,526.657 1150.43,531.824 1144.5,537.5C 1142.3,537.858 1140.97,539.192 1140.5,541.5C 1142.62,543.018 1144.95,544.018 1147.5,544.5C 1143.45,544.15 1139.62,544.817 1136,546.5C 1136.13,544.575 1136.3,542.575 1136.5,540.5C 1137.5,540.5 1138.5,540.5 1139.5,540.5C 1139.35,539.448 1139.52,538.448 1140,537.5C 1144.65,534.668 1148.82,531.335 1152.5,527.5C 1168.43,514.685 1186.43,510.351 1206.5,514.5 Z"/></g>
<g><path style="opacity:0.235" fill="#7c7c7c" d="M 1126.5,551.5 C 1126.38,552.586 1125.71,553.253 1124.5,553.5C 1117.35,552.902 1110.35,552.235 1103.5,551.5C 1107.09,550.543 1110.76,549.876 1114.5,549.5C 1118.55,549.962 1122.55,550.628 1126.5,551.5 Z"/></g>
<g><path style="opacity:1" fill="#010101" d="M 1128.5,551.5 C 1130.17,551.5 1131.83,551.5 1133.5,551.5C 1133.33,552.822 1133.66,553.989 1134.5,555C 1140.05,556.116 1145.38,557.782 1150.5,560C 1152.66,561.912 1154.99,563.579 1157.5,565C 1169.23,569.214 1179.23,576.048 1187.5,585.5C 1191.83,591.136 1194.83,597.47 1196.5,604.5C 1196.72,610.993 1197.88,617.327 1200,623.5C 1200.33,630.833 1200.67,638.167 1201,645.5C 1201.38,646.056 1201.88,646.389 1202.5,646.5C 1202.5,647.833 1202.5,649.167 1202.5,650.5C 1201.06,651.335 1200.06,652.668 1199.5,654.5C 1197.76,668.624 1195.43,682.624 1192.5,696.5C 1195.52,696.704 1198.52,697.037 1201.5,697.5C 1201.5,699.167 1201.5,700.833 1201.5,702.5C 1199.59,702.574 1198.42,703.574 1198,705.5C 1195.21,714.466 1191.88,723.133 1188,731.5C 1187.5,733.473 1187.34,735.473 1187.5,737.5C 1184.28,740.218 1181.11,743.218 1178,746.5C 1177.52,747.448 1177.35,748.448 1177.5,749.5C 1176.02,749.238 1174.69,749.571 1173.5,750.5C 1170.31,757.541 1167.14,764.541 1164,771.5C 1157.19,779.522 1153.35,788.855 1152.5,799.5C 1151.11,809.832 1149.44,820.165 1147.5,830.5C 1144.69,833.913 1143.02,837.913 1142.5,842.5C 1139.09,848.595 1136.09,854.929 1133.5,861.5C 1133.5,861.833 1133.5,862.167 1133.5,862.5C 1132.54,862.953 1131.71,863.619 1131,864.5C 1129.8,867.562 1128.63,870.562 1127.5,873.5C 1125.23,878.429 1122.56,883.096 1119.5,887.5C 1117.18,888.802 1115.84,890.802 1115.5,893.5C 1113.9,897.007 1111.57,900.007 1108.5,902.5C 1106.02,904.8 1104.02,907.467 1102.5,910.5C 1101.5,910.833 1100.83,911.5 1100.5,912.5C 1094.86,916.659 1089.19,920.826 1083.5,925C 1064.07,931.217 1044.07,933.217 1023.5,931C 1018.34,929.247 1013.34,927.08 1008.5,924.5C 1005.18,922.168 1001.85,919.834 998.5,917.5C 996.45,915.763 994.617,913.763 993,911.5C 992.517,910.552 992.351,909.552 992.5,908.5C 990.675,901.616 990.175,894.616 991,887.5C 993.095,882.323 994.595,876.99 995.5,871.5C 995.723,867.838 996.723,864.505 998.5,861.5C 1000.25,858.854 1001.25,855.854 1001.5,852.5C 1004.05,849.004 1005.38,845.004 1005.5,840.5C 1008.85,834.088 1011.69,827.421 1014,820.5C 1014.95,815.837 1015.78,811.17 1016.5,806.5C 1016.5,806.167 1016.5,805.833 1016.5,805.5C 1017.84,804.685 1018.84,803.518 1019.5,802C 1026.56,800.34 1033.56,799.173 1040.5,798.5C 1042.91,798.306 1043.91,796.973 1043.5,794.5C 1044.71,793.766 1046.04,793.433 1047.5,793.5C 1047.5,794.5 1047.5,795.5 1047.5,796.5C 1053,797.36 1057.83,796.027 1062,792.5C 1062.67,791.5 1062.67,790.5 1062,789.5C 1060.09,786.825 1057.93,784.492 1055.5,782.5C 1045.79,763.338 1040.63,743.004 1040,721.5C 1033.05,713.511 1030.21,704.178 1031.5,693.5C 1030.21,684.83 1030.21,676.163 1031.5,667.5C 1031.5,667.167 1031.5,666.833 1031.5,666.5C 1034.15,665.927 1036.81,665.26 1039.5,664.5C 1039.93,659.495 1040.26,654.495 1040.5,649.5C 1041.65,635.601 1043.98,621.935 1047.5,608.5C 1050.25,602.43 1052.75,596.097 1055,589.5C 1058.47,585.576 1061.31,581.243 1063.5,576.5C 1070.42,567.919 1078.76,561.586 1088.5,557.5C 1093.62,557.236 1098.62,556.403 1103.5,555C 1111.5,554.667 1119.5,554.333 1127.5,554C 1128.25,553.329 1128.59,552.496 1128.5,551.5 Z"/></g>
<g><path style="opacity:0.902" fill="#292929" d="M 1103.5,551.5 C 1110.35,552.235 1117.35,552.902 1124.5,553.5C 1125.71,553.253 1126.38,552.586 1126.5,551.5C 1127.17,551.5 1127.83,551.5 1128.5,551.5C 1128.59,552.496 1128.25,553.329 1127.5,554C 1119.5,554.333 1111.5,554.667 1103.5,555C 1098.62,556.403 1093.62,557.236 1088.5,557.5C 1089.57,556.566 1090.9,556.232 1092.5,556.5C 1092.5,555.5 1092.5,554.5 1092.5,553.5C 1095.92,551.778 1099.59,551.111 1103.5,551.5 Z"/></g>
<g><path style="opacity:0.251" fill="#4c4c4c" d="M 1158.5,547.5 C 1160.69,547.704 1162.69,548.37 1164.5,549.5C 1167.24,550.388 1169.91,551.555 1172.5,553C 1174.31,556.641 1176.97,559.474 1180.5,561.5C 1183.18,566.064 1185.18,570.897 1186.5,576C 1188.26,576.202 1189.92,576.702 1191.5,577.5C 1197.04,580.721 1202.21,584.388 1207,588.5C 1209.27,593.098 1211.94,597.431 1215,601.5C 1216.63,605.688 1217.46,610.021 1217.5,614.5C 1216.69,613.571 1215.85,612.571 1215,611.5C 1211.85,594.861 1202.35,584.194 1186.5,579.5C 1186.43,580.959 1186.77,582.292 1187.5,583.5C 1187.5,584.167 1187.5,584.833 1187.5,585.5C 1179.23,576.048 1169.23,569.214 1157.5,565C 1154.99,563.579 1152.66,561.912 1150.5,560C 1145.38,557.782 1140.05,556.116 1134.5,555C 1133.66,553.989 1133.33,552.822 1133.5,551.5C 1137.52,552.306 1141.52,553.472 1145.5,555C 1156.61,560.093 1167.28,566.093 1177.5,573C 1178.79,573.49 1180.13,573.657 1181.5,573.5C 1181.33,565.837 1178,559.837 1171.5,555.5C 1168.07,553.119 1164.4,551.285 1160.5,550C 1159.62,549.292 1158.95,548.458 1158.5,547.5 Z"/></g>
<g><path style="opacity:0.533" fill="#565656" d="M 1206.5,514.5 C 1211.35,514.546 1216.02,515.546 1220.5,517.5C 1249.36,535.618 1266.36,561.618 1271.5,595.5C 1270.5,595.586 1269.67,595.252 1269,594.5C 1267.97,590.227 1267.3,585.894 1267,581.5C 1266.24,579.685 1265.41,578.019 1264.5,576.5C 1262.75,569.107 1259.92,562.107 1256,555.5C 1250.69,548.856 1245.36,542.189 1240,535.5C 1236.83,533.667 1234.33,531.167 1232.5,528C 1227.68,526.093 1223.35,523.426 1219.5,520C 1217.5,519.667 1215.5,519.333 1213.5,519C 1211.04,517.456 1208.71,515.956 1206.5,514.5 Z"/></g>
<g><path style="opacity:0.306" fill="#5e5e5e" d="M 1092.5,553.5 C 1092.5,554.5 1092.5,555.5 1092.5,556.5C 1090.9,556.232 1089.57,556.566 1088.5,557.5C 1078.76,561.586 1070.42,567.919 1063.5,576.5C 1061.31,581.243 1058.47,585.576 1055,589.5C 1052.75,596.097 1050.25,602.43 1047.5,608.5C 1047.43,604.311 1048.26,600.311 1050,596.5C 1053.91,589.004 1058.08,581.671 1062.5,574.5C 1067.01,569.818 1071.68,565.318 1076.5,561C 1080.39,559.87 1083.72,557.87 1086.5,555C 1088.52,554.495 1090.52,553.995 1092.5,553.5 Z"/></g>
<g><path style="opacity:1" fill="#555555" d="M 1163.5,617.5 C 1163.53,616.503 1163.03,615.836 1162,615.5C 1159.35,617.241 1156.52,618.574 1153.5,619.5C 1156.61,617.334 1159.78,615.001 1163,612.5C 1166.91,607.127 1170.08,601.461 1172.5,595.5C 1173.66,599.122 1173.83,602.789 1173,606.5C 1171.11,608.026 1170.11,610.026 1170,612.5C 1168.22,614.79 1166.06,616.457 1163.5,617.5 Z"/></g>
<g><path style="opacity:0.274" fill="#292929" d="M 1264.5,576.5 C 1265.41,578.019 1266.24,579.685 1267,581.5C 1267.3,585.894 1267.97,590.227 1269,594.5C 1269.67,595.252 1270.5,595.586 1271.5,595.5C 1271.76,602.89 1271.43,610.223 1270.5,617.5C 1268.89,620.203 1267.89,623.203 1267.5,626.5C 1267.33,618.493 1267.5,610.493 1268,602.5C 1268.87,601.892 1269.37,601.059 1269.5,600C 1267.3,592.188 1265.64,584.354 1264.5,576.5 Z"/></g>
<g><path style="opacity:0.378" fill="#6b6b6b" d="M 1187.5,583.5 C 1197.01,594.054 1202.01,606.72 1202.5,621.5C 1201.41,621.38 1200.75,620.713 1200.5,619.5C 1200.08,614.135 1198.75,609.135 1196.5,604.5C 1194.83,597.47 1191.83,591.136 1187.5,585.5C 1187.5,584.833 1187.5,584.167 1187.5,583.5 Z"/></g>
<g><path style="opacity:1" fill="#939393" d="M 1163.5,617.5 C 1160.76,619.524 1158.09,621.524 1155.5,623.5C 1153.71,623.971 1151.88,624.304 1150,624.5C 1148.32,624.392 1147.15,623.725 1146.5,622.5C 1148.98,621.869 1151.31,620.869 1153.5,619.5C 1156.52,618.574 1159.35,617.241 1162,615.5C 1163.03,615.836 1163.53,616.503 1163.5,617.5 Z"/></g>
<g><path style="opacity:1" fill="#313131" d="M 1153.5,619.5 C 1151.31,620.869 1148.98,621.869 1146.5,622.5C 1128.2,623.63 1109.87,623.63 1091.5,622.5C 1108.33,622.321 1125.33,622.155 1142.5,622C 1143.17,621.333 1143.83,620.667 1144.5,620C 1147.48,619.502 1150.48,619.335 1153.5,619.5 Z"/></g>
<g><path style="opacity:0.375" fill="#2e2e2e" d="M 1196.5,604.5 C 1198.75,609.135 1200.08,614.135 1200.5,619.5C 1200.75,620.713 1201.41,621.38 1202.5,621.5C 1202.5,623.833 1202.5,626.167 1202.5,628.5C 1201.17,633.167 1201.17,637.833 1202.5,642.5C 1202.5,643.833 1202.5,645.167 1202.5,646.5C 1201.88,646.389 1201.38,646.056 1201,645.5C 1200.67,638.167 1200.33,630.833 1200,623.5C 1197.88,617.327 1196.72,610.993 1196.5,604.5 Z"/></g>
<g><path style="opacity:1" fill="#6b6b6b" d="M 1091.5,622.5 C 1109.87,623.63 1128.2,623.63 1146.5,622.5C 1147.15,623.725 1148.32,624.392 1150,624.5C 1151.88,624.304 1153.71,623.971 1155.5,623.5C 1149.33,627.599 1142.33,629.433 1134.5,629C 1117.18,628.771 1099.85,628.604 1082.5,628.5C 1103,627.833 1123.67,627.167 1144.5,626.5C 1144.71,625.914 1145.04,625.414 1145.5,625C 1123.17,624.333 1100.83,624.333 1078.5,625C 1077.83,625.667 1077.17,626.333 1076.5,627C 1073.59,627.275 1070.92,628.109 1068.5,629.5C 1070.77,627.222 1073.43,625.389 1076.5,624C 1081.48,623.252 1086.48,622.752 1091.5,622.5 Z"/></g>
<g><path style="opacity:0.318" fill="#6e6e6e" d="M 1217.5,614.5 C 1218.54,619.016 1219.54,623.683 1220.5,628.5C 1220.49,630.369 1220.16,632.036 1219.5,633.5C 1218,627.3 1217.33,620.967 1217.5,614.5 Z"/></g>
<g><path style="opacity:1" fill="#a2a2a2" d="M 1082.5,628.5 C 1079.14,629.14 1075.8,629.974 1072.5,631C 1071.29,632.039 1070.29,633.206 1069.5,634.5C 1068.51,634.328 1067.84,634.662 1067.5,635.5C 1063.23,638.7 1059.9,642.7 1057.5,647.5C 1057.17,646.833 1056.83,646.167 1056.5,645.5C 1057.53,643.618 1058.36,641.618 1059,639.5C 1062.1,636.048 1065.27,632.715 1068.5,629.5C 1070.92,628.109 1073.59,627.275 1076.5,627C 1077.17,626.333 1077.83,625.667 1078.5,625C 1100.83,624.333 1123.17,624.333 1145.5,625C 1145.04,625.414 1144.71,625.914 1144.5,626.5C 1123.67,627.167 1103,627.833 1082.5,628.5 Z"/></g>
<g><path style="opacity:0.171" fill="#676767" d="M 1047.5,608.5 C 1043.98,621.935 1041.65,635.601 1040.5,649.5C 1039.5,650.167 1038.5,650.833 1037.5,651.5C 1038.58,641.447 1040.08,631.447 1042,621.5C 1043.62,617.016 1045.46,612.683 1047.5,608.5 Z"/></g>
<g><path style="opacity:1" fill="#494949" d="M 1082.5,628.5 C 1078.07,630.097 1073.74,632.097 1069.5,634.5C 1070.29,633.206 1071.29,632.039 1072.5,631C 1075.8,629.974 1079.14,629.14 1082.5,628.5 Z"/></g>
<g><path style="opacity:0.359" fill="#9b9b9b" d="M 1202.5,628.5 C 1203.83,633.167 1203.83,637.833 1202.5,642.5C 1201.17,637.833 1201.17,633.167 1202.5,628.5 Z"/></g>
<g><path style="opacity:0.2" fill="#7d7d7d" d="M 1270.5,617.5 C 1269.95,628.209 1267.28,638.209 1262.5,647.5C 1263.64,640.321 1265.3,633.321 1267.5,626.5C 1267.89,623.203 1268.89,620.203 1270.5,617.5 Z"/></g>
<g><path style="opacity:1" fill="#3b3b3b" d="M 1068.5,629.5 C 1065.27,632.715 1062.1,636.048 1059,639.5C 1058.36,641.618 1057.53,643.618 1056.5,645.5C 1056.83,646.167 1057.17,646.833 1057.5,647.5C 1059.9,642.7 1063.23,638.7 1067.5,635.5C 1065.24,638.938 1062.74,642.271 1060,645.5C 1059.6,648.699 1058.77,651.699 1057.5,654.5C 1056.5,654.5 1055.5,654.5 1054.5,654.5C 1053.94,643.123 1058.61,634.789 1068.5,629.5 Z"/></g>
<g><path style="opacity:0.904" fill="#282828" d="M 929.5,650.5 C 930.694,651.777 932.36,652.444 934.5,652.5C 943.052,650.958 951.386,651.291 959.5,653.5C 945.819,653.382 932.152,653.716 918.5,654.5C 918.5,653.5 918.5,652.5 918.5,651.5C 921.962,650.518 925.629,650.185 929.5,650.5 Z"/></g>
<g><path style="opacity:1" fill="#030303" d="M 959.5,653.5 C 961.477,655.814 963.477,658.147 965.5,660.5C 966.946,662.618 967.613,664.951 967.5,667.5C 968.5,667.5 969.5,667.5 970.5,667.5C 971.088,670.063 972.088,672.396 973.5,674.5C 974.137,679.041 975.97,683.041 979,686.5C 979.263,691.005 980.263,695.339 982,699.5C 982.816,700.823 983.983,701.489 985.5,701.5C 985.721,704.279 985.388,706.946 984.5,709.5C 980.992,711.82 977.326,713.987 973.5,716C 971.527,716.495 969.527,716.662 967.5,716.5C 967.5,718.833 967.5,721.167 967.5,723.5C 968.5,723.5 969.5,723.5 970.5,723.5C 970.662,725.527 970.495,727.527 970,729.5C 966.259,732.515 962.426,735.348 958.5,738C 953.036,738.322 947.703,737.822 942.5,736.5C 942.67,735.178 942.337,734.011 941.5,733C 937.257,733.02 933.423,731.853 930,729.5C 928.97,729.836 928.47,730.503 928.5,731.5C 927.167,731.5 925.833,731.5 924.5,731.5C 924.714,729.856 924.38,728.356 923.5,727C 920.964,726.661 918.464,726.161 916,725.5C 913.722,726.62 912.222,725.787 911.5,723C 906.884,720.097 901.884,718.263 896.5,717.5C 890.389,718.255 884.722,720.255 879.5,723.5C 876.234,725.714 873.068,728.048 870,730.5C 869.51,731.793 869.343,733.127 869.5,734.5C 868.833,734.5 868.5,734.833 868.5,735.5C 867.022,735.238 865.689,735.571 864.5,736.5C 856.346,747.136 848.846,758.136 842,769.5C 834.181,783.758 827.014,798.425 820.5,813.5C 819.526,815.743 819.192,818.076 819.5,820.5C 820.833,820.5 822.167,820.5 823.5,820.5C 823.5,819.167 823.5,817.833 823.5,816.5C 824.167,816.5 824.833,816.5 825.5,816.5C 825.62,817.586 826.287,818.253 827.5,818.5C 831.349,817.869 835.016,816.869 838.5,815.5C 844.495,814.501 850.495,813.501 856.5,812.5C 856.5,810.833 856.5,809.167 856.5,807.5C 857.167,807.5 857.833,807.5 858.5,807.5C 859.946,808.613 861.613,808.78 863.5,808C 864.973,807.29 865.64,806.124 865.5,804.5C 866.568,803.566 867.901,803.232 869.5,803.5C 869.5,805.167 869.5,806.833 869.5,808.5C 882.346,809.307 895.179,810.307 908,811.5C 910.279,811.561 912.279,810.895 914,809.5C 915.301,809.96 916.634,810.294 918,810.5C 924.266,808.485 930.766,807.485 937.5,807.5C 949.421,805.842 961.421,804.842 973.5,804.5C 978.222,804.508 982.555,805.175 986.5,806.5C 979.66,817.51 973.326,828.844 967.5,840.5C 966.069,841.903 964.902,843.569 964,845.5C 963.51,846.793 963.343,848.127 963.5,849.5C 962.385,852.887 960.718,855.887 958.5,858.5C 956.654,860.03 955.654,862.03 955.5,864.5C 952.083,872.335 947.416,879.335 941.5,885.5C 939.086,886.911 937.419,888.911 936.5,891.5C 936.167,892.5 935.5,893.167 934.5,893.5C 932.178,894.802 930.845,896.802 930.5,899.5C 928.428,902.248 926.761,905.248 925.5,908.5C 924.5,908.5 923.5,908.5 922.5,908.5C 921.024,904.041 920.358,899.374 920.5,894.5C 912.667,897.128 904.667,899.461 896.5,901.5C 895.754,902.736 895.421,904.07 895.5,905.5C 888.363,905.164 881.363,905.831 874.5,907.5C 874.5,906.5 874.5,905.5 874.5,904.5C 868.824,904.334 863.157,904.501 857.5,905C 856.748,905.671 856.414,906.504 856.5,907.5C 855.5,907.5 854.5,907.5 853.5,907.5C 853.75,904.495 852.417,902.662 849.5,902C 837.856,900.733 826.189,899.566 814.5,898.5C 814.5,899.833 814.5,901.167 814.5,902.5C 812.901,902.768 811.568,902.434 810.5,901.5C 810.67,900.178 810.337,899.011 809.5,898C 805.931,897.854 802.598,897.02 799.5,895.5C 798.558,895.608 797.725,895.941 797,896.5C 790.022,892.89 782.689,890.224 775,888.5C 774.127,888.735 773.293,889.069 772.5,889.5C 770.228,887.349 767.561,885.849 764.5,885C 758.699,882.604 752.699,880.77 746.5,879.5C 743.814,875.492 740.647,871.825 737,868.5C 735.142,863.034 732.642,858.034 729.5,853.5C 728.268,846.691 728.268,840.024 729.5,833.5C 732.262,828.771 734.762,823.771 737,818.5C 743.605,810.76 749.105,802.427 753.5,793.5C 758.207,788.795 762.54,783.795 766.5,778.5C 772.085,774.37 776.752,769.37 780.5,763.5C 787.009,760.157 792.009,755.324 795.5,749C 796.448,748.517 797.448,748.351 798.5,748.5C 798.351,747.448 798.517,746.448 799,745.5C 808.359,736.914 816.859,727.581 824.5,717.5C 827.167,715.5 829.5,713.167 831.5,710.5C 834.991,708.349 837.325,705.349 838.5,701.5C 839.167,701.5 839.5,701.167 839.5,700.5C 843.713,699.292 846.713,696.625 848.5,692.5C 852.598,690.3 855.265,686.967 856.5,682.5C 857.492,682.672 858.158,682.338 858.5,681.5C 859.552,681.649 860.552,681.483 861.5,681C 865.493,678.34 868.826,675.007 871.5,671C 874.558,669.337 877.558,667.67 880.5,666C 884.995,665.416 888.995,663.749 892.5,661C 901.282,658.714 909.949,656.548 918.5,654.5C 932.152,653.716 945.819,653.382 959.5,653.5 Z"/></g>
<g><path style="opacity:0.318" fill="#5a5a5a" d="M 973.5,674.5 C 972.088,672.396 971.088,670.063 970.5,667.5C 969.5,667.5 968.5,667.5 967.5,667.5C 967.613,664.951 966.946,662.618 965.5,660.5C 963.477,658.147 961.477,655.814 959.5,653.5C 951.386,651.291 943.052,650.958 934.5,652.5C 932.36,652.444 930.694,651.777 929.5,650.5C 939.858,647.725 950.191,647.892 960.5,651C 966.827,657.803 971.161,665.637 973.5,674.5 Z"/></g>
<g><path style="opacity:0.302" fill="#7a7a7a" d="M 1219.5,645.5 C 1219.83,645.5 1220.17,645.5 1220.5,645.5C 1220.67,649.182 1220.5,652.848 1220,656.5C 1219.58,657.756 1218.75,658.423 1217.5,658.5C 1219.06,654.392 1219.72,650.059 1219.5,645.5 Z"/></g>
<g><path style="opacity:0.318" fill="#757575" d="M 1262.5,649.5 C 1260.92,655.925 1258.59,661.925 1255.5,667.5C 1255.12,660.288 1257.45,654.288 1262.5,649.5 Z"/></g>
<g><path style="opacity:0.604" fill="#4a4a4a" d="M 1040.5,649.5 C 1040.26,654.495 1039.93,659.495 1039.5,664.5C 1036.81,665.26 1034.15,665.927 1031.5,666.5C 1031.83,665.167 1032.17,663.833 1032.5,662.5C 1033.83,662.5 1035.17,662.5 1036.5,662.5C 1036.55,658.802 1036.89,655.135 1037.5,651.5C 1038.5,650.833 1039.5,650.167 1040.5,649.5 Z"/></g>
<g><path style="opacity:0.294" fill="#878787" d="M 1032.5,662.5 C 1032.17,663.833 1031.83,665.167 1031.5,666.5C 1031.5,666.833 1031.5,667.167 1031.5,667.5C 1030.78,668.551 1029.78,669.218 1028.5,669.5C 1028.34,668.127 1028.51,666.793 1029,665.5C 1030.38,664.449 1031.38,663.116 1032,661.5C 1032.4,661.728 1032.57,662.062 1032.5,662.5 Z"/></g>
<g><path style="opacity:0.125" fill="#858585" d="M 1254.5,668.5 C 1254.91,671.32 1253.91,673.32 1251.5,674.5C 1251.65,672.03 1252.65,670.03 1254.5,668.5 Z"/></g>
<g><path style="opacity:0.337" fill="#323232" d="M 1031.5,667.5 C 1030.21,676.163 1030.21,684.83 1031.5,693.5C 1030.73,692.737 1030.23,691.737 1030,690.5C 1029.33,689.748 1028.5,689.414 1027.5,689.5C 1027.21,682.745 1027.54,676.078 1028.5,669.5C 1029.78,669.218 1030.78,668.551 1031.5,667.5 Z"/></g>
<g><path style="opacity:0.689" fill="#343434" d="M 1220.5,645.5 C 1221.16,647.304 1221.5,649.304 1221.5,651.5C 1221,657.5 1220.5,663.5 1220,669.5C 1219.16,675.369 1218,681.036 1216.5,686.5C 1217.07,680.33 1217.73,674.163 1218.5,668C 1218.49,666.615 1218.15,665.449 1217.5,664.5C 1217.5,662.5 1217.5,660.5 1217.5,658.5C 1218.75,658.423 1219.58,657.756 1220,656.5C 1220.5,652.848 1220.67,649.182 1220.5,645.5 Z"/></g>
<g><path style="opacity:0.557" fill="#545454" d="M 1202.5,650.5 C 1201.14,665.405 1198.81,680.071 1195.5,694.5C 1197.2,694.34 1198.87,694.506 1200.5,695C 1201.25,695.671 1201.59,696.504 1201.5,697.5C 1198.52,697.037 1195.52,696.704 1192.5,696.5C 1195.43,682.624 1197.76,668.624 1199.5,654.5C 1200.06,652.668 1201.06,651.335 1202.5,650.5 Z"/></g>
<g><path style="opacity:0.439" fill="#535353" d="M 918.5,651.5 C 918.5,652.5 918.5,653.5 918.5,654.5C 909.949,656.548 901.282,658.714 892.5,661C 888.995,663.749 884.995,665.416 880.5,666C 877.558,667.67 874.558,669.337 871.5,671C 868.826,675.007 865.493,678.34 861.5,681C 860.552,681.483 859.552,681.649 858.5,681.5C 865.464,672.517 874.131,665.683 884.5,661C 895.913,658.08 907.246,654.914 918.5,651.5 Z"/></g>
<g><path style="opacity:0.18" fill="#686868" d="M 973.5,674.5 C 975.747,678.011 977.913,681.678 980,685.5C 981.519,691.025 983.352,696.359 985.5,701.5C 983.983,701.489 982.816,700.823 982,699.5C 980.263,695.339 979.263,691.005 979,686.5C 975.97,683.041 974.137,679.041 973.5,674.5 Z"/></g>
<g><path style="opacity:0.573" fill="#606060" d="M 1251.5,674.5 C 1249.06,683.463 1247.06,692.463 1245.5,701.5C 1244.53,699.052 1244.19,696.385 1244.5,693.5C 1244.88,686.409 1247.22,680.076 1251.5,674.5 Z"/></g>
<g><path style="opacity:0.455" fill="#6d6d6d" d="M 856.5,682.5 C 855.265,686.967 852.598,690.3 848.5,692.5C 850.794,688.873 853.46,685.539 856.5,682.5 Z"/></g>
<g><path style="opacity:0.316" fill="#484848" d="M 848.5,692.5 C 846.713,696.625 843.713,699.292 839.5,700.5C 841.9,697.097 844.9,694.43 848.5,692.5 Z"/></g>
<g><path style="opacity:0.104" fill="#555555" d="M 1217.5,664.5 C 1218.15,665.449 1218.49,666.615 1218.5,668C 1217.73,674.163 1217.07,680.33 1216.5,686.5C 1215.76,695.827 1215.6,705.16 1216,714.5C 1217.56,724.229 1219.39,733.896 1221.5,743.5C 1220.83,742.5 1220.17,741.5 1219.5,740.5C 1212.49,721.459 1210.66,701.792 1214,681.5C 1216.13,676.025 1217.3,670.358 1217.5,664.5 Z"/></g>
<g><path style="opacity:1" fill="#404040" d="M 850.5,707.5 C 850.483,705.972 849.816,705.472 848.5,706C 844.696,709.733 840.696,713.233 836.5,716.5C 837.203,714.284 838.536,712.451 840.5,711C 846.797,706.038 852.797,700.705 858.5,695C 860.927,693.409 863.593,692.575 866.5,692.5C 866.5,693.5 866.5,694.5 866.5,695.5C 860.94,699.041 855.607,703.041 850.5,707.5 Z"/></g>
<g><path style="opacity:0.514" fill="#606060" d="M 838.5,701.5 C 837.325,705.349 834.991,708.349 831.5,710.5C 833.458,707.208 835.791,704.208 838.5,701.5 Z"/></g>
<g><path style="opacity:0.486" fill="#808080" d="M 831.5,710.5 C 829.5,713.167 827.167,715.5 824.5,717.5C 825.5,713.833 827.833,711.5 831.5,710.5 Z"/></g>
<g><path style="opacity:0.19" fill="#535353" d="M 1246.5,706.5 C 1246.5,714.5 1246.5,722.5 1246.5,730.5C 1245.5,730.5 1244.5,730.5 1243.5,730.5C 1243.5,722.5 1243.5,714.5 1243.5,706.5C 1244.5,706.5 1245.5,706.5 1246.5,706.5 Z"/></g>
<g><path style="opacity:0.373" fill="#626262" d="M 1027.5,689.5 C 1028.5,689.414 1029.33,689.748 1030,690.5C 1030.23,691.737 1030.73,692.737 1031.5,693.5C 1030.21,704.178 1033.05,713.511 1040,721.5C 1040.63,743.004 1045.79,763.338 1055.5,782.5C 1054.62,782.631 1053.96,782.298 1053.5,781.5C 1049.55,773.445 1045.72,765.445 1042,757.5C 1039.51,746.041 1037.85,734.374 1037,722.5C 1031.14,712.382 1027.97,701.382 1027.5,689.5 Z"/></g>
<g><path style="opacity:0.422" fill="#3f3f3f" d="M 924.5,731.5 C 920.188,730.014 915.855,728.514 911.5,727C 908.944,726.04 906.777,724.54 905,722.5C 899.154,721.299 893.321,721.466 887.5,723C 884.477,725.178 881.144,726.845 877.5,728C 874.986,730.415 872.319,732.581 869.5,734.5C 869.343,733.127 869.51,731.793 870,730.5C 873.068,728.048 876.234,725.714 879.5,723.5C 884.722,720.255 890.389,718.255 896.5,717.5C 901.884,718.263 906.884,720.097 911.5,723C 912.222,725.787 913.722,726.62 916,725.5C 918.464,726.161 920.964,726.661 923.5,727C 924.38,728.356 924.714,729.856 924.5,731.5 Z"/></g>
<g><path style="opacity:0.545" fill="#5e5e5e" d="M 1201.5,702.5 C 1200.31,706.956 1198.81,711.289 1197,715.5C 1196.5,717.81 1196.34,720.143 1196.5,722.5C 1195.5,722.5 1194.5,722.5 1193.5,722.5C 1192.26,727.917 1190.26,732.917 1187.5,737.5C 1187.34,735.473 1187.5,733.473 1188,731.5C 1191.88,723.133 1195.21,714.466 1198,705.5C 1198.42,703.574 1199.59,702.574 1201.5,702.5 Z"/></g>
<g><path style="opacity:0.893" fill="#262626" d="M 1244.5,693.5 C 1244.19,696.385 1244.53,699.052 1245.5,701.5C 1246.45,702.919 1246.78,704.585 1246.5,706.5C 1245.5,706.5 1244.5,706.5 1243.5,706.5C 1243.5,714.5 1243.5,722.5 1243.5,730.5C 1244.5,730.5 1245.5,730.5 1246.5,730.5C 1246.28,733.279 1246.61,735.946 1247.5,738.5C 1246.5,738.5 1245.5,738.5 1244.5,738.5C 1244.5,740.167 1244.5,741.833 1244.5,743.5C 1243.7,742.048 1243.2,740.382 1243,738.5C 1242.83,732.5 1242.67,726.5 1242.5,720.5C 1242.33,711.284 1243,702.284 1244.5,693.5 Z"/></g>
<g><path style="opacity:0.294" fill="#4c4c4c" d="M 984.5,709.5 C 981.2,715.491 976.2,718.491 969.5,718.5C 970.28,721.851 971.613,725.018 973.5,728C 969.11,735.052 962.943,739.885 955,742.5C 949.337,740.789 944.17,738.289 939.5,735C 935.591,734.367 931.925,733.201 928.5,731.5C 928.47,730.503 928.97,729.836 930,729.5C 933.423,731.853 937.257,733.02 941.5,733C 942.337,734.011 942.67,735.178 942.5,736.5C 947.703,737.822 953.036,738.322 958.5,738C 962.426,735.348 966.259,732.515 970,729.5C 970.495,727.527 970.662,725.527 970.5,723.5C 969.5,723.5 968.5,723.5 967.5,723.5C 967.5,721.167 967.5,718.833 967.5,716.5C 969.527,716.662 971.527,716.495 973.5,716C 977.326,713.987 980.992,711.82 984.5,709.5 Z"/></g>
<g><path style="opacity:0.404" fill="#616161" d="M 1187.5,737.5 C 1184.23,743.811 1179.73,749.144 1174,753.5C 1169.73,764.714 1164.39,775.381 1158,785.5C 1157.33,790.273 1156.5,794.94 1155.5,799.5C 1154.54,801.265 1154.21,803.265 1154.5,805.5C 1152.72,804.01 1152.05,802.01 1152.5,799.5C 1153.35,788.855 1157.19,779.522 1164,771.5C 1167.14,764.541 1170.31,757.541 1173.5,750.5C 1174.69,749.571 1176.02,749.238 1177.5,749.5C 1177.35,748.448 1177.52,747.448 1178,746.5C 1181.11,743.218 1184.28,740.218 1187.5,737.5 Z"/></g>
<g><path style="opacity:0.549" fill="#686868" d="M 1247.5,738.5 C 1247.5,742.167 1247.5,745.833 1247.5,749.5C 1246.5,748.833 1245.5,748.167 1244.5,747.5C 1244.5,746.167 1244.5,744.833 1244.5,743.5C 1244.5,741.833 1244.5,740.167 1244.5,738.5C 1245.5,738.5 1246.5,738.5 1247.5,738.5 Z"/></g>
<g><path style="opacity:1" fill="#4d4d4d" d="M 824.5,728.5 C 813.842,741.157 802.842,753.49 791.5,765.5C 794.374,760.446 797.874,755.78 802,751.5C 809.081,743.254 816.581,735.588 824.5,728.5 Z"/></g>
<g><path style="opacity:1" fill="#6c6c6c" d="M 850.5,707.5 C 834.093,722.072 819.26,738.072 806,755.5C 792.504,768.485 780.338,782.485 769.5,797.5C 768.503,797.53 767.836,797.03 767.5,796C 769.399,793.611 771.066,791.111 772.5,788.5C 777.708,779.954 784.041,772.287 791.5,765.5C 802.842,753.49 813.842,741.157 824.5,728.5C 827.527,723.473 831.527,719.473 836.5,716.5C 840.696,713.233 844.696,709.733 848.5,706C 849.816,705.472 850.483,705.972 850.5,707.5 Z"/></g>
<g><path style="opacity:0.506" fill="#4d4d4d" d="M 824.5,717.5 C 816.859,727.581 808.359,736.914 799,745.5C 798.517,746.448 798.351,747.448 798.5,748.5C 797.448,748.351 796.448,748.517 795.5,749C 792.009,755.324 787.009,760.157 780.5,763.5C 780.539,762.417 780.873,761.417 781.5,760.5C 793.703,749.022 805.203,737.022 816,724.5C 819.042,722.279 821.875,719.946 824.5,717.5 Z"/></g>
<g><path style="opacity:0.816" fill="#2c2c2c" d="M 1244.5,747.5 C 1245.5,748.167 1246.5,748.833 1247.5,749.5C 1247.5,750.167 1247.5,750.833 1247.5,751.5C 1246.57,756.334 1246.57,761.334 1247.5,766.5C 1245.01,760.532 1244.01,754.199 1244.5,747.5 Z"/></g>
<g><path style="opacity:0.302" fill="#808080" d="M 1219.5,740.5 C 1220.17,741.5 1220.83,742.5 1221.5,743.5C 1223.05,746.418 1224.55,749.418 1226,752.5C 1225.89,756.932 1227.39,760.598 1230.5,763.5C 1230.5,764.5 1230.5,765.5 1230.5,766.5C 1228.39,765.093 1226.89,763.093 1226,760.5C 1222.92,754.039 1220.76,747.373 1219.5,740.5 Z"/></g>
<g><path style="opacity:0.58" fill="#5d5d5d" d="M 868.5,735.5 C 864.093,741.117 859.593,746.783 855,752.5C 843.414,772.182 832.747,792.515 823,813.5C 822.26,814.749 822.427,815.749 823.5,816.5C 823.5,817.833 823.5,819.167 823.5,820.5C 822.167,820.5 820.833,820.5 819.5,820.5C 819.192,818.076 819.526,815.743 820.5,813.5C 827.014,798.425 834.181,783.758 842,769.5C 848.846,758.136 856.346,747.136 864.5,736.5C 865.689,735.571 867.022,735.238 868.5,735.5 Z"/></g>
<g><path style="opacity:0.529" fill="#676767" d="M 1247.5,751.5 C 1249.4,763.55 1251.73,775.55 1254.5,787.5C 1251.43,780.818 1249.1,773.818 1247.5,766.5C 1246.57,761.334 1246.57,756.334 1247.5,751.5 Z"/></g>
<g><path style="opacity:0.812" fill="#3c3c3c" d="M 780.5,763.5 C 776.752,769.37 772.085,774.37 766.5,778.5C 766.557,777.391 766.89,776.391 767.5,775.5C 770.574,770.091 774.908,766.091 780.5,763.5 Z"/></g>
<g><path style="opacity:0.51" fill="#545454" d="M 1230.5,763.5 C 1235.23,769.949 1239.23,776.949 1242.5,784.5C 1237.02,779.564 1233.02,773.564 1230.5,766.5C 1230.5,765.5 1230.5,764.5 1230.5,763.5 Z"/></g>
<g><path style="opacity:0.306" fill="#656565" d="M 767.5,775.5 C 766.89,776.391 766.557,777.391 766.5,778.5C 762.54,783.795 758.207,788.795 753.5,793.5C 757.223,786.698 761.889,780.698 767.5,775.5 Z"/></g>
<g><path style="opacity:0.269" fill="#3e3e3e" d="M 1055.5,782.5 C 1057.93,784.492 1060.09,786.825 1062,789.5C 1062.67,790.5 1062.67,791.5 1062,792.5C 1057.83,796.027 1053,797.36 1047.5,796.5C 1047.5,795.5 1047.5,794.5 1047.5,793.5C 1051.2,793.448 1054.86,793.114 1058.5,792.5C 1058.45,788.818 1057.45,785.485 1055.5,782.5 Z"/></g>
<g><path style="opacity:1" fill="#474747" d="M 772.5,788.5 C 771.066,791.111 769.399,793.611 767.5,796C 767.836,797.03 768.503,797.53 769.5,797.5C 764.294,804.061 758.961,810.561 753.5,817C 752.668,817.688 752.002,817.521 751.5,816.5C 752.154,814.885 752.654,813.218 753,811.5C 759.365,803.642 765.865,795.975 772.5,788.5 Z"/></g>
<g><path style="opacity:0.651" fill="#5a5a5a" d="M 1043.5,794.5 C 1043.91,796.973 1042.91,798.306 1040.5,798.5C 1037.99,798.946 1035.99,798.28 1034.5,796.5C 1037.17,794.882 1040.17,794.215 1043.5,794.5 Z"/></g>
<g><path style="opacity:0.557" fill="#676767" d="M 1031.5,796.5 C 1029.84,798.343 1027.67,799.343 1025,799.5C 1023.62,799.316 1022.79,798.649 1022.5,797.5C 1025.46,796.841 1028.46,796.508 1031.5,796.5 Z"/></g>
<g><path style="opacity:1" fill="#eeeeee" d="M 1016.5,799.5 C 1017.57,801.347 1017.57,803.347 1016.5,805.5C 1016.5,805.833 1016.5,806.167 1016.5,806.5C 1011.75,817.371 1008.08,828.704 1005.5,840.5C 1003.59,844.233 1002.26,848.233 1001.5,852.5C 999.528,855.084 998.528,858.084 998.5,861.5C 996.723,864.505 995.723,867.838 995.5,871.5C 990.047,881.074 988.214,891.408 990,902.5C 990.566,904.723 991.4,906.723 992.5,908.5C 992.351,909.552 992.517,910.552 993,911.5C 994.617,913.763 996.45,915.763 998.5,917.5C 1006.82,927.322 1017.48,932.322 1030.5,932.5C 1039.48,935.026 1048.48,935.026 1057.5,932.5C 1075.05,932.556 1089.38,925.889 1100.5,912.5C 1100.83,911.5 1101.5,910.833 1102.5,910.5C 1105.47,908.557 1107.47,905.891 1108.5,902.5C 1111.57,900.007 1113.9,897.007 1115.5,893.5C 1117.82,892.198 1119.16,890.198 1119.5,887.5C 1122.56,883.096 1125.23,878.429 1127.5,873.5C 1130.25,870.277 1132.25,866.611 1133.5,862.5C 1133.5,862.167 1133.5,861.833 1133.5,861.5C 1137.76,855.866 1140.76,849.533 1142.5,842.5C 1144.77,838.782 1146.43,834.782 1147.5,830.5C 1149.37,826.435 1151.54,822.435 1154,818.5C 1154.5,814.179 1154.67,809.846 1154.5,805.5C 1154.21,803.265 1154.54,801.265 1155.5,799.5C 1155.33,806.508 1155.5,813.508 1156,820.5C 1162.33,828.833 1168.67,837.167 1175,845.5C 1176.95,846.109 1178.78,846.776 1180.5,847.5C 1179.32,847.281 1178.32,847.614 1177.5,848.5C 1176,851.687 1175,855.021 1174.5,858.5C 1171.7,865.869 1169.54,873.536 1168,881.5C 1167.5,884.817 1167.33,888.15 1167.5,891.5C 1165.03,901.156 1165.03,910.823 1167.5,920.5C 1167.34,922.527 1167.5,924.527 1168,926.5C 1169.44,930.025 1170.94,933.358 1172.5,936.5C 1174.24,943.315 1177.07,949.648 1181,955.5C 1183.28,961.729 1185.11,968.063 1186.5,974.5C 1187.82,982.432 1188.48,990.432 1188.5,998.5C 1188.05,1007.85 1187.38,1017.19 1186.5,1026.5C 1185.92,1029.78 1185.59,1033.12 1185.5,1036.5C 1185.52,1039.59 1186.19,1042.26 1187.5,1044.5C 1186.79,1045.4 1185.79,1045.74 1184.5,1045.5C 1173.97,1077.09 1163.64,1108.76 1153.5,1140.5C 1150.19,1138.51 1146.86,1136.51 1143.5,1134.5C 1135.36,1129.01 1126.69,1124.68 1117.5,1121.5C 1116.25,1119.86 1114.58,1118.7 1112.5,1118C 1109.48,1117.15 1106.48,1116.32 1103.5,1115.5C 1100.78,1113.68 1097.78,1112.68 1094.5,1112.5C 1088.47,1109.76 1082.14,1107.76 1075.5,1106.5C 1072.95,1105.61 1070.28,1105.28 1067.5,1105.5C 1067.03,1104.31 1066.03,1103.64 1064.5,1103.5C 1058.25,1101.86 1051.92,1100.86 1045.5,1100.5C 1040.28,1099.51 1034.95,1098.51 1029.5,1097.5C 1029.17,1097.5 1028.83,1097.5 1028.5,1097.5C 1010.2,1093.97 991.535,1092.3 972.5,1092.5C 956.881,1091.53 941.214,1091.2 925.5,1091.5C 924.833,1067.51 924.5,1043.51 924.5,1019.5C 926.117,1020.59 926.95,1022.26 927,1024.5C 927.923,1022.97 928.423,1021.3 928.5,1019.5C 928.062,1014.25 927.062,1009.25 925.5,1004.5C 925.333,993.828 925.5,983.161 926,972.5C 927.99,965.66 928.99,958.66 929,951.5C 931.48,943.862 933.98,936.196 936.5,928.5C 936.518,926.627 936.018,926.294 935,927.5C 930.292,936.257 927.292,945.591 926,955.5C 925.617,956.056 925.117,956.389 924.5,956.5C 924.167,956.5 923.833,956.5 923.5,956.5C 923.816,941.422 923.483,926.422 922.5,911.5C 923.833,910.833 924.833,909.833 925.5,908.5C 926.761,905.248 928.428,902.248 930.5,899.5C 932.326,897.853 933.66,895.853 934.5,893.5C 935.5,893.167 936.167,892.5 936.5,891.5C 938.914,890.089 940.581,888.089 941.5,885.5C 947.416,879.335 952.083,872.335 955.5,864.5C 957.346,862.97 958.346,860.97 958.5,858.5C 960.718,855.887 962.385,852.887 963.5,849.5C 965.625,846.912 966.958,843.912 967.5,840.5C 973.326,828.844 979.66,817.51 986.5,806.5C 987.401,805.71 988.068,804.71 988.5,803.5C 989.404,802.791 989.737,801.791 989.5,800.5C 990.15,800.196 990.817,799.863 991.5,799.5C 991.736,800.247 992.07,801.08 992.5,802C 1000.61,802.055 1008.61,801.221 1016.5,799.5 Z"/></g>
<g><path style="opacity:0.937" fill="#2e2e2e" d="M 1031.5,796.5 C 1032.5,796.5 1033.5,796.5 1034.5,796.5C 1035.99,798.28 1037.99,798.946 1040.5,798.5C 1033.56,799.173 1026.56,800.34 1019.5,802C 1018.84,803.518 1017.84,804.685 1016.5,805.5C 1017.57,803.347 1017.57,801.347 1016.5,799.5C 1018.1,797.926 1020.1,797.259 1022.5,797.5C 1022.79,798.649 1023.62,799.316 1025,799.5C 1027.67,799.343 1029.84,798.343 1031.5,796.5 Z"/></g>
<g><path style="opacity:0.601" fill="#484848" d="M 956.5,800.5 C 967.5,800.5 978.5,800.5 989.5,800.5C 989.737,801.791 989.404,802.791 988.5,803.5C 977.628,803.158 966.961,802.158 956.5,800.5 Z"/></g>
<g><path style="opacity:0.576" fill="#575757" d="M 1242.5,784.5 C 1243.5,784.414 1244.33,784.748 1245,785.5C 1248.98,790.646 1253.14,795.646 1257.5,800.5C 1257.83,800 1258.17,799.5 1258.5,799C 1256.79,795.329 1255.45,791.495 1254.5,787.5C 1255.38,787.369 1256.04,787.702 1256.5,788.5C 1257.74,793.905 1259.74,798.905 1262.5,803.5C 1262.22,804.778 1261.55,805.778 1260.5,806.5C 1256.27,801.833 1251.77,797.166 1247,792.5C 1245.22,789.941 1243.72,787.274 1242.5,784.5 Z"/></g>
<g><path style="opacity:0.867" fill="#1b1b1b" d="M 950.5,800.5 C 952.5,800.5 954.5,800.5 956.5,800.5C 966.961,802.158 977.628,803.158 988.5,803.5C 988.068,804.71 987.401,805.71 986.5,806.5C 982.555,805.175 978.222,804.508 973.5,804.5C 961.421,804.842 949.421,805.842 937.5,807.5C 938.145,806.188 939.145,805.188 940.5,804.5C 943.795,805.449 947.128,805.449 950.5,804.5C 950.5,803.167 950.5,801.833 950.5,800.5 Z"/></g>
<g><path style="opacity:0.49" fill="#535353" d="M 865.5,804.5 C 865.64,806.124 864.973,807.29 863.5,808C 861.613,808.78 859.946,808.613 858.5,807.5C 860.611,806.051 862.944,805.051 865.5,804.5 Z"/></g>
<g><path style="opacity:0.147" fill="#a1a1a1" d="M 1262.5,803.5 C 1263.36,804.688 1264.36,805.855 1265.5,807C 1263.42,809.139 1261.75,808.972 1260.5,806.5C 1261.55,805.778 1262.22,804.778 1262.5,803.5 Z"/></g>
<g><path style="opacity:0.971" fill="#262626" d="M 1152.5,799.5 C 1152.05,802.01 1152.72,804.01 1154.5,805.5C 1154.67,809.846 1154.5,814.179 1154,818.5C 1151.54,822.435 1149.37,826.435 1147.5,830.5C 1149.44,820.165 1151.11,809.832 1152.5,799.5 Z"/></g>
<g><path style="opacity:0.463" fill="#393939" d="M 950.5,800.5 C 950.5,801.833 950.5,803.167 950.5,804.5C 947.128,805.449 943.795,805.449 940.5,804.5C 939.145,805.188 938.145,806.188 937.5,807.5C 930.766,807.485 924.266,808.485 918,810.5C 916.634,810.294 915.301,809.96 914,809.5C 912.279,810.895 910.279,811.561 908,811.5C 895.179,810.307 882.346,809.307 869.5,808.5C 869.5,806.833 869.5,805.167 869.5,803.5C 872.85,803.335 876.183,803.502 879.5,804C 880.5,804.833 881.5,805.667 882.5,806.5C 896.206,808.192 909.873,808.359 923.5,807C 926.167,806 928.833,805 931.5,804C 938.008,803.525 944.341,802.358 950.5,800.5 Z"/></g>
<g><path style="opacity:0.435" fill="#424242" d="M 845.5,809.5 C 845.5,810.833 845.5,812.167 845.5,813.5C 843.473,813.338 841.473,813.505 839.5,814C 838.944,814.383 838.611,814.883 838.5,815.5C 835.016,816.869 831.349,817.869 827.5,818.5C 826.287,818.253 825.62,817.586 825.5,816.5C 832.08,813.857 838.747,811.524 845.5,809.5 Z"/></g>
<g><path style="opacity:0.931" fill="#272727" d="M 856.5,807.5 C 856.5,809.167 856.5,810.833 856.5,812.5C 850.495,813.501 844.495,814.501 838.5,815.5C 838.611,814.883 838.944,814.383 839.5,814C 841.473,813.505 843.473,813.338 845.5,813.5C 845.5,812.167 845.5,810.833 845.5,809.5C 849.121,808.627 852.788,807.961 856.5,807.5 Z"/></g>
<g><path style="opacity:1" fill="#4d4d4d" d="M 952.5,808.5 C 956.846,808.334 961.179,808.501 965.5,809C 966.337,810.011 966.67,811.178 966.5,812.5C 957.682,813.803 948.848,815.136 940,816.5C 935.839,816.501 935.339,815.168 938.5,812.5C 943.308,811.257 947.974,809.924 952.5,808.5 Z"/></g>
<g><path style="opacity:1" fill="#4b4b4b" d="M 860.5,813.5 C 868.84,813.334 877.173,813.5 885.5,814C 889.5,815.333 893.5,816.667 897.5,818C 899.037,819.11 899.703,820.61 899.5,822.5C 893.801,821.414 888.135,820.247 882.5,819C 876.5,818.333 870.5,818.333 864.5,819C 852.21,821.221 840.376,824.721 829,829.5C 826.759,829.32 826.259,828.487 827.5,827C 832.541,825.256 837.208,822.922 841.5,820C 846.366,818.127 851.366,816.794 856.5,816C 858.066,815.392 859.4,814.558 860.5,813.5 Z"/></g>
<g><path style="opacity:1" fill="#383838" d="M 1016.5,806.5 C 1015.78,811.17 1014.95,815.837 1014,820.5C 1011.69,827.421 1008.85,834.088 1005.5,840.5C 1008.08,828.704 1011.75,817.371 1016.5,806.5 Z"/></g>
<g><path style="opacity:0.337" fill="#616161" d="M 753.5,793.5 C 749.105,802.427 743.605,810.76 737,818.5C 734.762,823.771 732.262,828.771 729.5,833.5C 731.281,827.358 733.781,821.358 737,815.5C 741.791,807.562 747.291,800.228 753.5,793.5 Z"/></g>
<g><path style="opacity:1" fill="#515151" d="M 1147.5,830.5 C 1146.43,834.782 1144.77,838.782 1142.5,842.5C 1143.02,837.913 1144.69,833.913 1147.5,830.5 Z"/></g>
<g><path style="opacity:1" fill="#373737" d="M 1067.5,858.5 C 1067.8,854.21 1067.14,850.21 1065.5,846.5C 1065.33,843.15 1065.5,839.817 1066,836.5C 1066.96,839.574 1068.12,842.574 1069.5,845.5C 1070.66,850.802 1070.83,856.136 1070,861.5C 1069.15,860.429 1068.31,859.429 1067.5,858.5 Z"/></g>
<g><path style="opacity:1" fill="#181818" d="M 1067.5,858.5 C 1068.31,859.429 1069.15,860.429 1070,861.5C 1070.83,856.136 1070.66,850.802 1069.5,845.5C 1068.12,842.574 1066.96,839.574 1066,836.5C 1065.5,839.817 1065.33,843.15 1065.5,846.5C 1064.51,842.03 1064.18,837.363 1064.5,832.5C 1065.5,832.5 1066.5,832.5 1067.5,832.5C 1069.56,836.906 1071.06,841.573 1072,846.5C 1073.65,855.423 1074.48,864.423 1074.5,873.5C 1073.18,873.33 1072.01,873.663 1071,874.5C 1069.51,869.246 1068.35,863.913 1067.5,858.5 Z"/></g>
<g><path style="opacity:1" fill="#494949" d="M 1005.5,840.5 C 1005.38,845.004 1004.05,849.004 1001.5,852.5C 1002.26,848.233 1003.59,844.233 1005.5,840.5 Z"/></g>
<g><path style="opacity:1" fill="#515151" d="M 967.5,840.5 C 966.958,843.912 965.625,846.912 963.5,849.5C 963.343,848.127 963.51,846.793 964,845.5C 964.902,843.569 966.069,841.903 967.5,840.5 Z"/></g>
<g><path style="opacity:1" fill="#565656" d="M 1142.5,842.5 C 1140.76,849.533 1137.76,855.866 1133.5,861.5C 1136.09,854.929 1139.09,848.595 1142.5,842.5 Z"/></g>
<g><path style="opacity:1" fill="#353535" d="M 1130.5,813.5 C 1131.59,813.62 1132.25,814.287 1132.5,815.5C 1132,817.5 1131.5,819.5 1131,821.5C 1129.49,822.257 1128.15,823.257 1127,824.5C 1124.91,829.763 1121.91,834.43 1118,838.5C 1116.45,843.062 1114.45,847.396 1112,851.5C 1106.38,858.222 1101.22,865.222 1096.5,872.5C 1095.39,871.277 1095.22,869.944 1096,868.5C 1106.94,849.746 1118.44,831.412 1130.5,813.5 Z"/></g>
<g><path style="opacity:0.999" fill="#010101" d="M 1251.5,880.5 C 1255.27,882.937 1257.94,886.271 1259.5,890.5C 1267.42,917.339 1270.75,944.673 1269.5,972.5C 1269.5,975.5 1269.5,978.5 1269.5,981.5C 1268.77,982.808 1267.93,984.142 1267,985.5C 1266.44,992.843 1265.78,1000.18 1265,1007.5C 1263.3,1021.17 1260.8,1034.67 1257.5,1048C 1257.49,1059.5 1258.33,1071 1260,1082.5C 1262.59,1090.67 1264.26,1099 1265,1107.5C 1267.32,1109.82 1268.82,1112.49 1269.5,1115.5C 1270.93,1119.79 1272.43,1124.12 1274,1128.5C 1275.6,1137.2 1277.43,1145.87 1279.5,1154.5C 1280.89,1161.42 1282.89,1168.09 1285.5,1174.5C 1285.5,1175.17 1285.5,1175.83 1285.5,1176.5C 1286.08,1180.14 1286.58,1183.81 1287,1187.5C 1290.83,1199.26 1294.33,1210.92 1297.5,1222.5C 1297.33,1230.84 1297.5,1239.17 1298,1247.5C 1300.13,1252.25 1300.96,1257.25 1300.5,1262.5C 1274.16,1262.67 1247.83,1262.5 1221.5,1262C 1219.61,1258.73 1218.28,1255.23 1217.5,1251.5C 1215.96,1242.6 1214.79,1233.6 1214,1224.5C 1214.07,1207.5 1214.07,1190.5 1214,1173.5C 1212.58,1164.25 1210.74,1155.25 1208.5,1146.5C 1203.41,1127.3 1200.25,1107.64 1199,1087.5C 1198.3,1081.97 1196.97,1076.63 1195,1071.5C 1194.78,1061.36 1193.61,1051.36 1191.5,1041.5C 1189.38,1041.47 1188.05,1042.47 1187.5,1044.5C 1186.19,1042.26 1185.52,1039.59 1185.5,1036.5C 1185.59,1033.12 1185.92,1029.78 1186.5,1026.5C 1191.15,1009.75 1191.65,992.753 1188,975.5C 1187.62,974.944 1187.12,974.611 1186.5,974.5C 1185.11,968.063 1183.28,961.729 1181,955.5C 1177.07,949.648 1174.24,943.315 1172.5,936.5C 1167.36,914.252 1167.19,891.919 1172,869.5C 1174.21,866.211 1175.04,862.544 1174.5,858.5C 1176.1,856.52 1177.27,854.187 1178,851.5C 1183.21,851.219 1187.38,853.385 1190.5,858C 1199.91,861.103 1209.58,863.437 1219.5,865C 1220.17,866.333 1221.17,867.333 1222.5,868C 1226.82,868.996 1231.15,869.83 1235.5,870.5C 1235.5,871.5 1235.5,872.5 1235.5,873.5C 1240.94,875.531 1246.28,877.864 1251.5,880.5 Z"/></g>
<g><path style="opacity:1" fill="#565656" d="M 1001.5,852.5 C 1001.25,855.854 1000.25,858.854 998.5,861.5C 998.528,858.084 999.528,855.084 1001.5,852.5 Z"/></g>
<g><path style="opacity:1" fill="#535353" d="M 958.5,858.5 C 958.346,860.97 957.346,862.97 955.5,864.5C 955.654,862.03 956.654,860.03 958.5,858.5 Z"/></g>
<g><path style="opacity:0.202" fill="#676767" d="M 729.5,853.5 C 732.642,858.034 735.142,863.034 737,868.5C 740.647,871.825 743.814,875.492 746.5,879.5C 746.5,879.833 746.5,880.167 746.5,880.5C 737.519,873.527 731.852,864.527 729.5,853.5 Z"/></g>
<g><path style="opacity:1" fill="#575757" d="M 1133.5,862.5 C 1132.25,866.611 1130.25,870.277 1127.5,873.5C 1128.63,870.562 1129.8,867.562 1131,864.5C 1131.71,863.619 1132.54,862.953 1133.5,862.5 Z"/></g>
<g><path style="opacity:0.498" fill="#242424" d="M 1180.5,847.5 C 1185.1,850.913 1190.1,853.747 1195.5,856C 1208.39,860.469 1221.39,864.636 1234.5,868.5C 1238.96,870.688 1243.29,873.021 1247.5,875.5C 1248.95,877.185 1250.29,878.851 1251.5,880.5C 1246.28,877.864 1240.94,875.531 1235.5,873.5C 1235.5,872.5 1235.5,871.5 1235.5,870.5C 1231.15,869.83 1226.82,868.996 1222.5,868C 1221.17,867.333 1220.17,866.333 1219.5,865C 1209.58,863.437 1199.91,861.103 1190.5,858C 1187.38,853.385 1183.21,851.219 1178,851.5C 1177.27,854.187 1176.1,856.52 1174.5,858.5C 1175,855.021 1176,851.687 1177.5,848.5C 1178.32,847.614 1179.32,847.281 1180.5,847.5 Z"/></g>
<g><path style="opacity:1" fill="#5d5d5d" d="M 941.5,885.5 C 940.581,888.089 938.914,890.089 936.5,891.5C 937.419,888.911 939.086,886.911 941.5,885.5 Z"/></g>
<g><path style="opacity:0.422" fill="#474747" d="M 746.5,879.5 C 752.699,880.77 758.699,882.604 764.5,885C 767.561,885.849 770.228,887.349 772.5,889.5C 773.293,889.069 774.127,888.735 775,888.5C 782.689,890.224 790.022,892.89 797,896.5C 797.725,895.941 798.558,895.608 799.5,895.5C 802.598,897.02 805.931,897.854 809.5,898C 810.337,899.011 810.67,900.178 810.5,901.5C 804.499,899.702 798.499,897.869 792.5,896C 786.833,895 781.167,894 775.5,893C 771.19,890.743 766.857,888.743 762.5,887C 757.677,886.258 753.011,884.925 748.5,883C 747.619,882.292 746.953,881.458 746.5,880.5C 746.5,880.167 746.5,879.833 746.5,879.5 Z"/></g>
<g><path style="opacity:1" fill="#5f5f5f" d="M 1119.5,887.5 C 1119.16,890.198 1117.82,892.198 1115.5,893.5C 1115.84,890.802 1117.18,888.802 1119.5,887.5 Z"/></g>
<g><path style="opacity:1" fill="#6d6d6d" d="M 995.5,871.5 C 994.595,876.99 993.095,882.323 991,887.5C 990.175,894.616 990.675,901.616 992.5,908.5C 991.4,906.723 990.566,904.723 990,902.5C 988.214,891.408 990.047,881.074 995.5,871.5 Z"/></g>
<g><path style="opacity:1" fill="#585858" d="M 934.5,893.5 C 933.66,895.853 932.326,897.853 930.5,899.5C 930.845,896.802 932.178,894.802 934.5,893.5 Z"/></g>
<g><path style="opacity:0.319" fill="#2f2f2f" d="M 925.5,908.5 C 924.833,909.833 923.833,910.833 922.5,911.5C 921.883,911.389 921.383,911.056 921,910.5C 920.582,906.066 919.749,901.733 918.5,897.5C 914.618,898.577 910.951,900.244 907.5,902.5C 903.329,903.131 899.329,904.131 895.5,905.5C 895.421,904.07 895.754,902.736 896.5,901.5C 904.667,899.461 912.667,897.128 920.5,894.5C 920.358,899.374 921.024,904.041 922.5,908.5C 923.5,908.5 924.5,908.5 925.5,908.5 Z"/></g>
<g><path style="opacity:0.608" fill="#191919" d="M 853.5,907.5 C 845.632,905.781 837.632,905.114 829.5,905.5C 829.923,902.757 828.756,901.424 826,901.5C 824.624,901.684 823.791,902.351 823.5,903.5C 820.545,902.841 817.545,902.508 814.5,902.5C 814.5,901.167 814.5,899.833 814.5,898.5C 826.189,899.566 837.856,900.733 849.5,902C 852.417,902.662 853.75,904.495 853.5,907.5 Z"/></g>
<g><path style="opacity:1" fill="#707070" d="M 1167.5,891.5 C 1167.5,901.167 1167.5,910.833 1167.5,920.5C 1165.03,910.823 1165.03,901.156 1167.5,891.5 Z"/></g>
<g><path style="opacity:0.388" fill="#606060" d="M 829.5,905.5 C 827.718,904.28 825.718,903.614 823.5,903.5C 823.791,902.351 824.624,901.684 826,901.5C 828.756,901.424 829.923,902.757 829.5,905.5 Z"/></g>
<g><path style="opacity:0.392" fill="#595959" d="M 874.5,907.5 C 868.545,908.182 862.545,908.182 856.5,907.5C 856.414,906.504 856.748,905.671 857.5,905C 863.157,904.501 868.824,904.334 874.5,904.5C 874.5,905.5 874.5,906.5 874.5,907.5 Z"/></g>
<g><path style="opacity:1" fill="#626262" d="M 1108.5,902.5 C 1107.47,905.891 1105.47,908.557 1102.5,910.5C 1104.02,907.467 1106.02,904.8 1108.5,902.5 Z"/></g>
<g><path style="opacity:0.996" fill="#000000" d="M 1577.5,906.5 C 1592.74,906.176 1607.91,906.509 1623,907.5C 1623.5,1026.5 1623.67,1145.5 1623.5,1264.5C 1607.83,1264.5 1592.17,1264.5 1576.5,1264.5C 1576.17,1145.1 1576.5,1025.76 1577.5,906.5 Z"/></g>
<g><path style="opacity:1" fill="#010101" d="M 1905.5,1186.5 C 1905.56,1187.04 1905.89,1187.38 1906.5,1187.5C 1907.5,1094.17 1907.83,1000.84 1907.5,907.5C 1922.9,906.17 1938.4,906.17 1954,907.5C 1954.83,1026.4 1954.67,1145.24 1953.5,1264C 1936.26,1264.82 1919.09,1264.66 1902,1263.5C 1837.28,1172.95 1772.78,1082.29 1708.5,991.5C 1708.44,990.957 1708.11,990.624 1707.5,990.5C 1706.5,1081.5 1706.17,1172.5 1706.5,1263.5C 1691.34,1264.5 1676.01,1264.83 1660.5,1264.5C 1660.17,1145.26 1660.5,1026.1 1661.5,907C 1676.74,906.176 1691.91,906.343 1707,907.5C 1773.18,1000.53 1839.34,1093.53 1905.5,1186.5 Z"/></g>
<g><path style="opacity:1" fill="#010101" d="M 1410.5,1149.5 C 1397.01,1148.5 1383.34,1148.17 1369.5,1148.5C 1369.5,1187.17 1369.5,1225.83 1369.5,1264.5C 1354.34,1265.5 1339.01,1265.83 1323.5,1265.5C 1323.5,1146.17 1323.5,1026.83 1323.5,907.5C 1358.5,907.333 1393.5,907.5 1428.5,908C 1479.98,917.147 1514.48,946.313 1532,995.5C 1542.42,1036.82 1534.09,1073.82 1507,1106.5C 1493.84,1122.18 1478.01,1134.18 1459.5,1142.5C 1484.75,1182 1510.25,1221.34 1536,1260.5C 1537.01,1262.02 1537.51,1263.69 1537.5,1265.5C 1519.83,1265.67 1502.16,1265.5 1484.5,1265C 1459.7,1226.56 1435.03,1188.06 1410.5,1149.5 Z"/></g>
<g><path style="opacity:0.812" fill="#afafaf" d="M 1907.5,907.5 C 1907.83,1000.84 1907.5,1094.17 1906.5,1187.5C 1905.89,1187.38 1905.56,1187.04 1905.5,1186.5C 1906.17,1093.5 1906.83,1000.5 1907.5,907.5 Z"/></g>
<g><path style="opacity:0.775" fill="#1a1a1a" d="M 1259.5,890.5 C 1263.97,897.457 1266.8,905.124 1268,913.5C 1270.33,933.142 1270.83,952.809 1269.5,972.5C 1270.75,944.673 1267.42,917.339 1259.5,890.5 Z"/></g>
<g><path style="opacity:1" fill="#3d3d3d" d="M 1174.5,858.5 C 1175.04,862.544 1174.21,866.211 1172,869.5C 1167.19,891.919 1167.36,914.252 1172.5,936.5C 1170.94,933.358 1169.44,930.025 1168,926.5C 1167.5,924.527 1167.34,922.527 1167.5,920.5C 1167.5,910.833 1167.5,901.167 1167.5,891.5C 1167.33,888.15 1167.5,884.817 1168,881.5C 1169.54,873.536 1171.7,865.869 1174.5,858.5 Z"/></g>
<g><path style="opacity:1" fill="#020202" d="M 544.5,927.5 C 562.5,927.5 580.5,927.5 598.5,927.5C 636.167,1038.83 673.833,1150.17 711.5,1261.5C 695.5,1261.5 679.5,1261.5 663.5,1261.5C 652.333,1226.83 640.667,1192.33 628.5,1158C 589.501,1157.5 550.501,1157.33 511.5,1157.5C 500.5,1192.17 489.5,1226.83 478.5,1261.5C 463.163,1261.67 447.83,1261.5 432.5,1261C 432.043,1260.59 431.709,1260.09 431.5,1259.5C 469.573,1148.95 507.24,1038.28 544.5,927.5 Z"/></g>
<g><path style="opacity:1" fill="#000000" d="M 757.5,1260.5 C 757.5,1162.17 757.5,1063.83 757.5,965.5C 724.167,965.5 690.833,965.5 657.5,965.5C 656.505,953.011 656.171,940.344 656.5,927.5C 738.834,927.333 821.167,927.5 903.5,928C 904.833,940.667 904.833,953.333 903.5,966C 869.835,966.5 836.168,966.667 802.5,966.5C 802.5,1064.83 802.5,1163.17 802.5,1261.5C 787.324,1261.83 772.324,1261.5 757.5,1260.5 Z"/></g>
<g><path style="opacity:1" fill="#010101" d="M 183.5,928.5 C 198.412,928.176 213.245,928.509 228,929.5C 228.333,968.833 228.667,1008.17 229,1047.5C 257.833,1008 286.667,968.5 315.5,929C 332.83,928.5 350.163,928.333 367.5,928.5C 366.56,931.714 365.06,934.714 363,937.5C 333.997,976.854 305.497,1016.52 277.5,1056.5C 324.719,1122.56 372.553,1188.23 421,1253.5C 423.06,1256.29 424.56,1259.29 425.5,1262.5C 408.163,1262.67 390.83,1262.5 373.5,1262C 332.714,1205.39 291.381,1149.22 249.5,1093.5C 242.678,1102.46 235.845,1111.46 229,1120.5C 228.667,1167.5 228.333,1214.5 228,1261.5C 212.911,1262.49 197.745,1262.82 182.5,1262.5C 182.169,1151.1 182.502,1039.76 183.5,928.5 Z"/></g>
<g><path style="opacity:1" fill="#464646" d="M 1100.5,912.5 C 1089.38,925.889 1075.05,932.556 1057.5,932.5C 1048.5,932.5 1039.5,932.5 1030.5,932.5C 1017.48,932.322 1006.82,927.322 998.5,917.5C 1001.85,919.834 1005.18,922.168 1008.5,924.5C 1013.34,927.08 1018.34,929.247 1023.5,931C 1044.07,933.217 1064.07,931.217 1083.5,925C 1089.19,920.826 1094.86,916.659 1100.5,912.5 Z"/></g>
<g><path style="opacity:1" fill="#858585" d="M 1030.5,932.5 C 1039.5,932.5 1048.5,932.5 1057.5,932.5C 1048.48,935.026 1039.48,935.026 1030.5,932.5 Z"/></g>
<g><path style="opacity:1" fill="#959595" d="M 1417.5,949.5 C 1401.83,949.5 1386.17,949.5 1370.5,949.5C 1370.5,1002.17 1370.5,1054.83 1370.5,1107.5C 1387.17,1107.5 1403.83,1107.5 1420.5,1107.5C 1403.67,1108.5 1386.67,1108.83 1369.5,1108.5C 1369.5,1055.17 1369.5,1001.83 1369.5,948.5C 1385.68,948.17 1401.68,948.504 1417.5,949.5 Z"/></g>
<g><path style="opacity:1" fill="#fefefe" d="M 1417.5,949.5 C 1448.72,952.881 1470.89,968.881 1484,997.5C 1493.9,1026.42 1490.23,1053.42 1473,1078.5C 1459.45,1095.36 1441.95,1105.02 1420.5,1107.5C 1403.83,1107.5 1387.17,1107.5 1370.5,1107.5C 1370.5,1054.83 1370.5,1002.17 1370.5,949.5C 1386.17,949.5 1401.83,949.5 1417.5,949.5 Z"/></g>
<g><path style="opacity:1" fill="#828282" d="M 925.5,1004.5 C 925.737,1005.79 925.404,1006.79 924.5,1007.5C 924.5,990.5 924.5,973.5 924.5,956.5C 925.117,956.389 925.617,956.056 926,955.5C 927.292,945.591 930.292,936.257 935,927.5C 936.018,926.294 936.518,926.627 936.5,928.5C 933.98,936.196 931.48,943.862 929,951.5C 928.99,958.66 927.99,965.66 926,972.5C 925.5,983.161 925.333,993.828 925.5,1004.5 Z"/></g>
<g><path style="opacity:0.812" fill="#a1a1a1" d="M 657.5,965.5 C 690.833,965.5 724.167,965.5 757.5,965.5C 757.5,1063.83 757.5,1162.17 757.5,1260.5C 756.501,1162.67 756.167,1064.67 756.5,966.5C 723.329,966.832 690.329,966.498 657.5,965.5 Z"/></g>
<g><path style="opacity:1" fill="#fcfcfc" d="M 569.5,968.5 C 575.152,988.083 580.985,1007.75 587,1027.5C 597.808,1058.76 608.308,1090.09 618.5,1121.5C 586.165,1121.67 553.832,1121.5 521.5,1121C 533.39,1087.33 544.89,1053.5 556,1019.5C 560.973,1002.61 565.473,985.607 569.5,968.5 Z"/></g>
<g><path style="opacity:0.461" fill="#262626" d="M 923.5,956.5 C 923.833,956.5 924.167,956.5 924.5,956.5C 924.5,973.5 924.5,990.5 924.5,1007.5C 924.5,1011.5 924.5,1015.5 924.5,1019.5C 923.59,1017.98 922.757,1016.31 922,1014.5C 921.219,1006.18 920.719,997.85 920.5,989.5C 921.006,983.429 921.006,977.429 920.5,971.5C 921.138,966.406 922.138,961.406 923.5,956.5 Z"/></g>
<g><path style="opacity:1" fill="#2b2b2b" d="M 1186.5,974.5 C 1187.12,974.611 1187.62,974.944 1188,975.5C 1191.65,992.753 1191.15,1009.75 1186.5,1026.5C 1187.38,1017.19 1188.05,1007.85 1188.5,998.5C 1188.48,990.432 1187.82,982.432 1186.5,974.5 Z"/></g>
<g><path style="opacity:0.784" fill="#1f1f1f" d="M 1708.5,991.5 C 1707.83,1082.17 1707.17,1172.83 1706.5,1263.5C 1706.17,1172.5 1706.5,1081.5 1707.5,990.5C 1708.11,990.624 1708.44,990.957 1708.5,991.5 Z"/></g>
<g><path style="opacity:1" fill="#9f9f9f" d="M 925.5,1004.5 C 927.062,1009.25 928.062,1014.25 928.5,1019.5C 928.423,1021.3 927.923,1022.97 927,1024.5C 926.95,1022.26 926.117,1020.59 924.5,1019.5C 924.5,1015.5 924.5,1011.5 924.5,1007.5C 925.404,1006.79 925.737,1005.79 925.5,1004.5 Z"/></g>
<g><path style="opacity:0.614" fill="#1c1c1c" d="M 1269.5,981.5 C 1268.54,1000.56 1265.71,1019.23 1261,1037.5C 1259.31,1050.48 1259.31,1063.48 1261,1076.5C 1265.32,1089.12 1268.15,1102.12 1269.5,1115.5C 1268.82,1112.49 1267.32,1109.82 1265,1107.5C 1264.26,1099 1262.59,1090.67 1260,1082.5C 1258.33,1071 1257.49,1059.5 1257.5,1048C 1260.8,1034.67 1263.3,1021.17 1265,1007.5C 1265.78,1000.18 1266.44,992.843 1267,985.5C 1267.93,984.142 1268.77,982.808 1269.5,981.5 Z"/></g>
<g><path style="opacity:1" fill="#656565" d="M 1159.5,1101.5 C 1158.88,1101.61 1158.38,1101.94 1158,1102.5C 1157.5,1100.53 1157.34,1098.53 1157.5,1096.5C 1161.69,1084.41 1166.19,1072.41 1171,1060.5C 1172.42,1057.99 1174.09,1055.66 1176,1053.5C 1176.67,1055.17 1176.67,1056.83 1176,1058.5C 1171.81,1065.26 1169.14,1072.6 1168,1080.5C 1167.33,1081.17 1166.67,1081.83 1166,1082.5C 1163.68,1088.79 1161.51,1095.12 1159.5,1101.5 Z"/></g>
<g><path style="opacity:1" fill="#010101" d="M 925.5,1091.5 C 941.214,1091.2 956.881,1091.53 972.5,1092.5C 991.044,1094.06 1009.71,1095.73 1028.5,1097.5C 1028.83,1097.5 1029.17,1097.5 1029.5,1097.5C 1030.15,1098.73 1031.32,1099.39 1033,1099.5C 1037.14,1100.24 1041.3,1100.57 1045.5,1100.5C 1045.92,1101.22 1046.58,1101.72 1047.5,1102C 1054.24,1102.85 1060.91,1104.02 1067.5,1105.5C 1070.28,1105.28 1072.95,1105.61 1075.5,1106.5C 1076.06,1107.79 1077.06,1108.62 1078.5,1109C 1083.87,1110.07 1089.21,1111.24 1094.5,1112.5C 1097.78,1112.68 1100.78,1113.68 1103.5,1115.5C 1107.89,1118.08 1112.56,1120.08 1117.5,1121.5C 1126.69,1124.68 1135.36,1129.01 1143.5,1134.5C 1143.54,1135.58 1143.87,1136.58 1144.5,1137.5C 1148.79,1138.46 1150.79,1141.12 1150.5,1145.5C 1148.56,1159.64 1146.89,1173.8 1145.5,1188C 1145.77,1194.57 1146.61,1201.07 1148,1207.5C 1153.83,1213.99 1159.66,1220.49 1165.5,1227C 1168.77,1227.94 1171.1,1229.94 1172.5,1233C 1173.79,1233.49 1175.13,1233.66 1176.5,1233.5C 1185.13,1241.63 1193.63,1249.96 1202,1258.5C 1202.68,1259.78 1202.52,1260.95 1201.5,1262C 1169.5,1262.5 1137.5,1262.67 1105.5,1262.5C 1103.27,1246.89 1097.6,1232.56 1088.5,1219.5C 1087.39,1220.72 1087.22,1222.06 1088,1223.5C 1093.68,1236.04 1097.85,1249.04 1100.5,1262.5C 1080.5,1262.5 1060.5,1262.5 1040.5,1262.5C 1040.03,1248.82 1039.37,1235.16 1038.5,1221.5C 1038.38,1205.66 1038.71,1189.82 1039.5,1174C 1039.17,1170.17 1038.83,1166.33 1038.5,1162.5C 1036.03,1171.33 1034.53,1180.33 1034,1189.5C 1033.17,1207.34 1033.34,1225 1034.5,1242.5C 1035.21,1249.14 1035.55,1255.81 1035.5,1262.5C 1007.83,1262.5 980.167,1262.5 952.5,1262.5C 951.121,1256.01 950.288,1249.34 950,1242.5C 947.215,1234.79 945.215,1226.79 944,1218.5C 936.19,1197.74 929.19,1176.74 923,1155.5C 922.167,1134.83 922.334,1114.16 923.5,1093.5C 924.522,1093.14 925.189,1092.48 925.5,1091.5 Z"/></g>
<g><path style="opacity:1" fill="#5a5a5a" d="M 972.5,1092.5 C 991.535,1092.3 1010.2,1093.97 1028.5,1097.5C 1009.71,1095.73 991.044,1094.06 972.5,1092.5 Z"/></g>
<g><path style="opacity:1" fill="#3b3b3b" d="M 1029.5,1097.5 C 1034.95,1098.51 1040.28,1099.51 1045.5,1100.5C 1041.3,1100.57 1037.14,1100.24 1033,1099.5C 1031.32,1099.39 1030.15,1098.73 1029.5,1097.5 Z"/></g>
<g><path style="opacity:1" fill="#4d4d4d" d="M 1045.5,1100.5 C 1051.92,1100.86 1058.25,1101.86 1064.5,1103.5C 1066.03,1103.64 1067.03,1104.31 1067.5,1105.5C 1060.91,1104.02 1054.24,1102.85 1047.5,1102C 1046.58,1101.72 1045.92,1101.22 1045.5,1100.5 Z"/></g>
<g><path style="opacity:1" fill="#949494" d="M 1157.5,1096.5 C 1157.34,1098.53 1157.5,1100.53 1158,1102.5C 1158.38,1101.94 1158.88,1101.61 1159.5,1101.5C 1157.67,1105.48 1155.83,1109.48 1154,1113.5C 1153.33,1111.17 1153.33,1108.83 1154,1106.5C 1155.49,1103.15 1156.65,1099.82 1157.5,1096.5 Z"/></g>
<g><path style="opacity:1" fill="#535353" d="M 1075.5,1106.5 C 1082.14,1107.76 1088.47,1109.76 1094.5,1112.5C 1089.21,1111.24 1083.87,1110.07 1078.5,1109C 1077.06,1108.62 1076.06,1107.79 1075.5,1106.5 Z"/></g>
<g><path style="opacity:1" fill="#515151" d="M 1103.5,1115.5 C 1106.48,1116.32 1109.48,1117.15 1112.5,1118C 1114.58,1118.7 1116.25,1119.86 1117.5,1121.5C 1112.56,1120.08 1107.89,1118.08 1103.5,1115.5 Z"/></g>
<g><path style="opacity:0.959" fill="#202020" d="M 1143.5,1134.5 C 1146.86,1136.51 1150.19,1138.51 1153.5,1140.5C 1153.92,1141.26 1154.26,1142.1 1154.5,1143C 1150.25,1162.25 1148.42,1181.75 1149,1201.5C 1150.37,1205.24 1152.04,1208.91 1154,1212.5C 1161.25,1219.86 1168.75,1226.86 1176.5,1233.5C 1175.13,1233.66 1173.79,1233.49 1172.5,1233C 1171.1,1229.94 1168.77,1227.94 1165.5,1227C 1159.66,1220.49 1153.83,1213.99 1148,1207.5C 1146.61,1201.07 1145.77,1194.57 1145.5,1188C 1146.89,1173.8 1148.56,1159.64 1150.5,1145.5C 1150.79,1141.12 1148.79,1138.46 1144.5,1137.5C 1143.87,1136.58 1143.54,1135.58 1143.5,1134.5 Z"/></g>
<g><path style="opacity:0.855" fill="#818181" d="M 1410.5,1149.5 C 1397.17,1149.5 1383.83,1149.5 1370.5,1149.5C 1370.83,1188 1370.5,1226.34 1369.5,1264.5C 1369.5,1225.83 1369.5,1187.17 1369.5,1148.5C 1383.34,1148.17 1397.01,1148.5 1410.5,1149.5 Z"/></g>
<g><path style="opacity:0.402" fill="#333333" d="M 1279.5,1154.5 C 1282.76,1160.66 1284.76,1167.32 1285.5,1174.5C 1282.89,1168.09 1280.89,1161.42 1279.5,1154.5 Z"/></g>
<g><path style="opacity:0.46" fill="#171717" d="M 1208.5,1146.5 C 1210.74,1155.25 1212.58,1164.25 1214,1173.5C 1214.07,1190.5 1214.07,1207.5 1214,1224.5C 1214.79,1233.6 1215.96,1242.6 1217.5,1251.5C 1216.11,1249.73 1214.94,1247.73 1214,1245.5C 1209.97,1225.43 1209.47,1205.27 1212.5,1185C 1211.04,1172.16 1209.71,1159.33 1208.5,1146.5 Z"/></g>
<g><path style="opacity:1" fill="#1e1e1e" d="M 1038.5,1221.5 C 1037.21,1212.69 1036.38,1203.69 1036,1194.5C 1035.67,1195.83 1035.33,1197.17 1035,1198.5C 1034.5,1213.16 1034.33,1227.83 1034.5,1242.5C 1033.34,1225 1033.17,1207.34 1034,1189.5C 1034.53,1180.33 1036.03,1171.33 1038.5,1162.5C 1038.83,1166.33 1039.17,1170.17 1039.5,1174C 1038.71,1189.82 1038.38,1205.66 1038.5,1221.5 Z"/></g>
<g><path style="opacity:0.878" fill="#1f1f1f" d="M 1285.5,1176.5 C 1288.95,1183.67 1291.79,1191.34 1294,1199.5C 1295.86,1207.04 1297.02,1214.7 1297.5,1222.5C 1294.33,1210.92 1290.83,1199.26 1287,1187.5C 1286.58,1183.81 1286.08,1180.14 1285.5,1176.5 Z"/></g>
<g><path style="opacity:1" fill="#383838" d="M 1038.5,1221.5 C 1039.37,1235.16 1040.03,1248.82 1040.5,1262.5C 1038.83,1262.5 1037.17,1262.5 1035.5,1262.5C 1035.55,1255.81 1035.21,1249.14 1034.5,1242.5C 1034.33,1227.83 1034.5,1213.16 1035,1198.5C 1035.33,1197.17 1035.67,1195.83 1036,1194.5C 1036.38,1203.69 1037.21,1212.69 1038.5,1221.5 Z"/></g>
<g><path style="opacity:0.939" fill="#222222" d="M 1297.5,1222.5 C 1298.32,1225.64 1298.82,1228.97 1299,1232.5C 1300,1233.83 1301,1235.17 1302,1236.5C 1302.33,1243.5 1302.67,1250.5 1303,1257.5C 1305.2,1260.5 1304.36,1262.17 1300.5,1262.5C 1300.96,1257.25 1300.13,1252.25 1298,1247.5C 1297.5,1239.17 1297.33,1230.84 1297.5,1222.5 Z"/></g>
<g><path style="opacity:1" fill="#353535" d="M 1105.5,1262.5 C 1103.83,1262.5 1102.17,1262.5 1100.5,1262.5C 1097.85,1249.04 1093.68,1236.04 1088,1223.5C 1087.22,1222.06 1087.39,1220.72 1088.5,1219.5C 1097.6,1232.56 1103.27,1246.89 1105.5,1262.5 Z"/></g>
<g><path style="opacity:1" fill="#000000" d="M 974.5,1359.5 C 979.5,1359.5 984.5,1359.5 989.5,1359.5C 989.5,1396.5 989.5,1433.5 989.5,1470.5C 984.5,1470.5 979.5,1470.5 974.5,1470.5C 974.5,1433.5 974.5,1396.5 974.5,1359.5 Z"/></g>
<g><path style="opacity:0.999" fill="#030303" d="M 862.5,1374.5 C 868.5,1374.5 874.5,1374.5 880.5,1374.5C 880.5,1380.83 880.5,1387.17 880.5,1393.5C 892.838,1393.33 905.171,1393.5 917.5,1394C 923.244,1414.29 919.41,1432.45 906,1448.5C 901,1454.83 895.5,1460.33 889.5,1465C 885.5,1461.67 881.5,1458.33 877.5,1455C 884.118,1447.59 890.618,1440.09 897,1432.5C 901.027,1424.67 902.527,1416.34 901.5,1407.5C 888.5,1407.5 875.5,1407.5 862.5,1407.5C 862.5,1396.5 862.5,1385.5 862.5,1374.5 Z"/></g>
<g><path style="opacity:0.999" fill="#030303" d="M 1582.5,1374.5 C 1588.5,1374.5 1594.5,1374.5 1600.5,1374.5C 1600.5,1380.83 1600.5,1387.17 1600.5,1393.5C 1612.84,1393.33 1625.17,1393.5 1637.5,1394C 1643.24,1414.29 1639.41,1432.45 1626,1448.5C 1621,1454.83 1615.5,1460.33 1609.5,1465C 1605.5,1461.67 1601.5,1458.33 1597.5,1455C 1604.12,1447.59 1610.62,1440.09 1617,1432.5C 1621.03,1424.67 1622.53,1416.34 1621.5,1407.5C 1608.5,1407.5 1595.5,1407.5 1582.5,1407.5C 1582.5,1396.5 1582.5,1385.5 1582.5,1374.5 Z"/></g>
<g><path style="opacity:0.999" fill="#030303" d="M 1887.5,1374.5 C 1893.5,1374.5 1899.5,1374.5 1905.5,1374.5C 1905.5,1380.83 1905.5,1387.17 1905.5,1393.5C 1917.84,1393.33 1930.17,1393.5 1942.5,1394C 1948.24,1414.29 1944.41,1432.45 1931,1448.5C 1926,1454.83 1920.5,1460.33 1914.5,1465C 1910.5,1461.67 1906.5,1458.33 1902.5,1455C 1909.12,1447.59 1915.62,1440.09 1922,1432.5C 1926.03,1424.67 1927.53,1416.34 1926.5,1407.5C 1913.5,1407.5 1900.5,1407.5 1887.5,1407.5C 1887.5,1396.5 1887.5,1385.5 1887.5,1374.5 Z"/></g>
<g><path style="opacity:0.998" fill="#020202" d="M 1130.5,1390.5 C 1131.68,1390.28 1132.68,1390.61 1133.5,1391.5C 1136.08,1395 1138.42,1398.66 1140.5,1402.5C 1153.9,1390.08 1167.73,1389.41 1182,1400.5C 1184.51,1404.53 1186.18,1408.86 1187,1413.5C 1187.74,1429.52 1187.57,1445.52 1186.5,1461.5C 1175.17,1461.5 1163.83,1461.5 1152.5,1461.5C 1152.5,1456.83 1152.5,1452.17 1152.5,1447.5C 1158.17,1447.5 1163.83,1447.5 1169.5,1447.5C 1169.67,1436.16 1169.5,1424.83 1169,1413.5C 1165.73,1406.74 1160.57,1404.91 1153.5,1408C 1149.76,1409.74 1146.59,1412.24 1144,1415.5C 1141.26,1431.1 1139.09,1446.77 1137.5,1462.5C 1131.5,1462.5 1125.5,1462.5 1119.5,1462.5C 1121.17,1446.97 1123.17,1431.47 1125.5,1416C 1124.84,1409.67 1122.5,1404.01 1118.5,1399C 1122.68,1396.3 1126.68,1393.47 1130.5,1390.5 Z"/></g>
<g><path style="opacity:0.998" fill="#020202" d="M 1663.5,1390.5 C 1664.68,1390.28 1665.68,1390.61 1666.5,1391.5C 1669.08,1395 1671.42,1398.66 1673.5,1402.5C 1686.9,1390.08 1700.73,1389.41 1715,1400.5C 1717.51,1404.53 1719.18,1408.86 1720,1413.5C 1720.74,1429.52 1720.57,1445.52 1719.5,1461.5C 1708.17,1461.5 1696.83,1461.5 1685.5,1461.5C 1685.5,1456.83 1685.5,1452.17 1685.5,1447.5C 1691.17,1447.5 1696.83,1447.5 1702.5,1447.5C 1702.67,1436.16 1702.5,1424.83 1702,1413.5C 1698.73,1406.74 1693.57,1404.91 1686.5,1408C 1682.76,1409.74 1679.59,1412.24 1677,1415.5C 1674.26,1431.1 1672.09,1446.77 1670.5,1462.5C 1664.5,1462.5 1658.5,1462.5 1652.5,1462.5C 1654.17,1446.97 1656.17,1431.47 1658.5,1416C 1657.84,1409.67 1655.5,1404.01 1651.5,1399C 1655.68,1396.3 1659.68,1393.47 1663.5,1390.5 Z"/></g>
<g><path style="opacity:0.999" fill="#040404" d="M 228.5,1390.5 C 231.719,1391.64 235.053,1392.47 238.5,1393C 251.167,1393.33 263.833,1393.67 276.5,1394C 284.774,1394.94 289.94,1399.44 292,1407.5C 292.5,1425.5 292.667,1443.5 292.5,1461.5C 286.5,1461.5 280.5,1461.5 274.5,1461.5C 274.667,1444.83 274.5,1428.16 274,1411.5C 270.166,1408.25 265.666,1406.91 260.5,1407.5C 257.911,1407.53 255.411,1407.86 253,1408.5C 249.968,1416.59 248.968,1424.92 250,1433.5C 251.088,1440.02 252.255,1446.52 253.5,1453C 253.202,1455.85 252.869,1458.68 252.5,1461.5C 241.833,1461.5 231.167,1461.5 220.5,1461.5C 220.5,1456.83 220.5,1452.17 220.5,1447.5C 225.511,1447.67 230.511,1447.5 235.5,1447C 230.198,1434.19 230.198,1421.36 235.5,1408.5C 232.293,1407.03 228.959,1405.86 225.5,1405C 224.978,1404.44 224.645,1403.77 224.5,1403C 225.94,1398.85 227.274,1394.68 228.5,1390.5 Z"/></g>
<g><path style="opacity:1" fill="#030303" d="M 355.5,1390.5 C 358.738,1391.63 362.071,1392.47 365.5,1393C 373.884,1393.17 382.218,1393.84 390.5,1395C 397.113,1398.04 400.946,1403.21 402,1410.5C 402.5,1422.83 402.667,1435.16 402.5,1447.5C 406.5,1447.5 410.5,1447.5 414.5,1447.5C 414.5,1452.17 414.5,1456.83 414.5,1461.5C 391.833,1461.5 369.167,1461.5 346.5,1461.5C 346.5,1456.83 346.5,1452.17 346.5,1447.5C 359.167,1447.5 371.833,1447.5 384.5,1447.5C 384.667,1436.16 384.5,1424.83 384,1413.5C 383.06,1410.23 380.893,1408.39 377.5,1408C 369.011,1408.07 360.678,1407.07 352.5,1405C 352.043,1404.59 351.709,1404.09 351.5,1403.5C 353.242,1399.27 354.576,1394.94 355.5,1390.5 Z"/></g>
<g><path style="opacity:1" fill="#030303" d="M 428.5,1390.5 C 431.738,1391.63 435.071,1392.47 438.5,1393C 446.884,1393.17 455.218,1393.84 463.5,1395C 470.113,1398.04 473.946,1403.21 475,1410.5C 475.5,1422.83 475.667,1435.16 475.5,1447.5C 479.5,1447.5 483.5,1447.5 487.5,1447.5C 487.5,1452.17 487.5,1456.83 487.5,1461.5C 464.833,1461.5 442.167,1461.5 419.5,1461.5C 419.5,1456.83 419.5,1452.17 419.5,1447.5C 432.167,1447.5 444.833,1447.5 457.5,1447.5C 457.667,1436.16 457.5,1424.83 457,1413.5C 456.06,1410.23 453.893,1408.39 450.5,1408C 442.011,1408.07 433.678,1407.07 425.5,1405C 425.043,1404.59 424.709,1404.09 424.5,1403.5C 426.242,1399.27 427.576,1394.94 428.5,1390.5 Z"/></g>
<g><path style="opacity:0.998" fill="#030303" d="M 540.5,1391.5 C 541.5,1391.5 542.5,1391.5 543.5,1391.5C 545.939,1397.93 547.439,1404.59 548,1411.5C 548.958,1423.83 549.791,1436.16 550.5,1448.5C 573.602,1449.89 587.102,1439.22 591,1416.5C 591.5,1409.17 591.666,1401.84 591.5,1394.5C 597.41,1392.98 603.41,1391.98 609.5,1391.5C 614.097,1446.23 589.097,1469.9 534.5,1462.5C 533.359,1445.84 532.193,1429.17 531,1412.5C 530.448,1407.84 529.282,1403.34 527.5,1399C 527.645,1398.23 527.978,1397.56 528.5,1397C 532.71,1395.39 536.71,1393.56 540.5,1391.5 Z"/></g>
<g><path style="opacity:0.998" fill="#050505" d="M 573.5,1391.5 C 574.833,1391.5 576.167,1391.5 577.5,1391.5C 578.931,1397.86 578.764,1404.2 577,1410.5C 574.53,1417.58 571.863,1424.58 569,1431.5C 563.348,1430.09 558.182,1427.75 553.5,1424.5C 556.164,1418.34 558.33,1412.01 560,1405.5C 560.784,1402.24 560.617,1399.07 559.5,1396C 564.184,1394.17 568.851,1392.67 573.5,1391.5 Z"/></g>
<g><path style="opacity:0.999" fill="#040404" d="M 725.5,1390.5 C 728.421,1391.48 731.421,1392.31 734.5,1393C 744.549,1393.13 754.549,1393.8 764.5,1395C 771.113,1398.04 774.946,1403.21 776,1410.5C 776.5,1427.5 776.667,1444.5 776.5,1461.5C 770.5,1461.5 764.5,1461.5 758.5,1461.5C 758.667,1445.5 758.5,1429.5 758,1413.5C 757.06,1410.23 754.893,1408.39 751.5,1408C 744.167,1407.67 736.833,1407.33 729.5,1407C 726.363,1406.4 723.363,1405.4 720.5,1404C 721.939,1399.41 723.606,1394.91 725.5,1390.5 Z"/></g>
<g><path style="opacity:0.996" fill="#010101" d="M 794.5,1390.5 C 797.421,1391.48 800.421,1392.31 803.5,1393C 814.5,1393.33 825.5,1393.67 836.5,1394C 844.435,1396.27 849.268,1401.44 851,1409.5C 851.5,1426.83 851.667,1444.16 851.5,1461.5C 845.5,1461.5 839.5,1461.5 833.5,1461.5C 833.971,1444.41 833.471,1427.41 832,1410.5C 830.509,1409 828.676,1408.16 826.5,1408C 817.167,1407.67 807.833,1407.33 798.5,1407C 796.122,1406.49 793.788,1405.82 791.5,1405C 791.094,1400.01 792.094,1395.17 794.5,1390.5 Z"/></g>
<g><path style="opacity:0.996" fill="#010101" d="M 1049.5,1390.5 C 1052.42,1391.48 1055.42,1392.31 1058.5,1393C 1069.5,1393.33 1080.5,1393.67 1091.5,1394C 1099.44,1396.27 1104.27,1401.44 1106,1409.5C 1106.5,1426.83 1106.67,1444.16 1106.5,1461.5C 1100.5,1461.5 1094.5,1461.5 1088.5,1461.5C 1088.97,1444.41 1088.47,1427.41 1087,1410.5C 1085.51,1409 1083.68,1408.16 1081.5,1408C 1072.17,1407.67 1062.83,1407.33 1053.5,1407C 1051.12,1406.49 1048.79,1405.82 1046.5,1405C 1046.09,1400.01 1047.09,1395.17 1049.5,1390.5 Z"/></g>
<g><path style="opacity:0.998" fill="#020202" d="M 1210.5,1391.5 C 1211.5,1391.41 1212.33,1391.75 1213,1392.5C 1215.22,1398.61 1218.22,1404.28 1222,1409.5C 1227,1415.17 1232,1420.83 1237,1426.5C 1240.48,1420.39 1242.98,1413.89 1244.5,1407C 1241.57,1406.39 1238.74,1405.56 1236,1404.5C 1236,1400.14 1236.5,1395.81 1237.5,1391.5C 1245.5,1393.17 1253.5,1394.83 1261.5,1396.5C 1260.92,1406.81 1258.76,1416.81 1255,1426.5C 1252.92,1430.58 1250.09,1434.08 1246.5,1437C 1249.67,1440.83 1252.83,1444.67 1256,1448.5C 1256.26,1452.84 1256.1,1457.17 1255.5,1461.5C 1236.83,1461.5 1218.17,1461.5 1199.5,1461.5C 1199.5,1456.83 1199.5,1452.17 1199.5,1447.5C 1211.17,1447.67 1222.84,1447.5 1234.5,1447C 1225,1436.17 1215.5,1425.33 1206,1414.5C 1202.25,1409.5 1199.42,1404 1197.5,1398C 1197.83,1397.5 1198.17,1397 1198.5,1396.5C 1202.6,1394.81 1206.6,1393.14 1210.5,1391.5 Z"/></g>
<g><path style="opacity:0.998" fill="#040404" d="M 1321.5,1391.5 C 1329.41,1393.2 1336.24,1396.87 1342,1402.5C 1346.99,1414.65 1351.49,1426.98 1355.5,1439.5C 1363.62,1430.83 1368.29,1420.5 1369.5,1408.5C 1365.55,1407.89 1361.72,1406.89 1358,1405.5C 1358.45,1400.87 1359.62,1396.37 1361.5,1392C 1370.12,1393.45 1378.62,1395.61 1387,1398.5C 1387.38,1424.77 1376.54,1444.93 1354.5,1459C 1344.58,1463.96 1334.25,1467.79 1323.5,1470.5C 1320.91,1465.79 1319.41,1460.79 1319,1455.5C 1324.78,1453.59 1330.61,1451.76 1336.5,1450C 1338.48,1449.52 1339.81,1448.35 1340.5,1446.5C 1336.49,1434.64 1331.99,1422.98 1327,1411.5C 1323.62,1408.98 1319.96,1406.98 1316,1405.5C 1316.95,1400.58 1318.78,1395.92 1321.5,1391.5 Z"/></g>
<g><path style="opacity:1" fill="#030303" d="M 1403.5,1390.5 C 1406.74,1391.63 1410.07,1392.47 1413.5,1393C 1421.88,1393.17 1430.22,1393.84 1438.5,1395C 1445.11,1398.04 1448.95,1403.21 1450,1410.5C 1450.5,1422.83 1450.67,1435.16 1450.5,1447.5C 1454.5,1447.5 1458.5,1447.5 1462.5,1447.5C 1462.5,1452.17 1462.5,1456.83 1462.5,1461.5C 1439.83,1461.5 1417.17,1461.5 1394.5,1461.5C 1394.5,1456.83 1394.5,1452.17 1394.5,1447.5C 1407.17,1447.5 1419.83,1447.5 1432.5,1447.5C 1432.67,1436.16 1432.5,1424.83 1432,1413.5C 1431.06,1410.23 1428.89,1408.39 1425.5,1408C 1417.01,1408.07 1408.68,1407.07 1400.5,1405C 1400.04,1404.59 1399.71,1404.09 1399.5,1403.5C 1401.24,1399.27 1402.58,1394.94 1403.5,1390.5 Z"/></g>
<g><path style="opacity:0.998" fill="#030303" d="M 1518.5,1391.5 C 1525.86,1404.71 1535.02,1416.71 1546,1427.5C 1548.39,1425.73 1550.06,1423.39 1551,1420.5C 1552.04,1416.27 1553.21,1412.1 1554.5,1408C 1551.69,1407.01 1548.86,1406.17 1546,1405.5C 1545.67,1400.83 1545.83,1396.16 1546.5,1391.5C 1554.86,1392.67 1563.19,1394.01 1571.5,1395.5C 1571.15,1408.09 1568.32,1420.09 1563,1431.5C 1560.5,1434 1558,1436.5 1555.5,1439C 1560,1444.17 1564.5,1449.33 1569,1454.5C 1569.67,1455.17 1569.67,1455.83 1569,1456.5C 1565.89,1460.66 1562.05,1463.49 1557.5,1465C 1546.37,1452.55 1535.37,1440.05 1524.5,1427.5C 1522.94,1430.96 1522.11,1434.63 1522,1438.5C 1521.5,1446.49 1521.33,1454.49 1521.5,1462.5C 1515.83,1462.5 1510.17,1462.5 1504.5,1462.5C 1504.85,1452.16 1505.35,1441.83 1506,1431.5C 1507.53,1425.44 1510.36,1420.1 1514.5,1415.5C 1510.72,1410.27 1507.72,1404.6 1505.5,1398.5C 1505.83,1397.83 1506.17,1397.17 1506.5,1396.5C 1510.6,1394.81 1514.6,1393.14 1518.5,1391.5 Z"/></g>
<g><path style="opacity:0.999" fill="#040404" d="M 1736.5,1390.5 C 1739.72,1391.64 1743.05,1392.47 1746.5,1393C 1759.17,1393.33 1771.83,1393.67 1784.5,1394C 1792.77,1394.94 1797.94,1399.44 1800,1407.5C 1800.5,1425.5 1800.67,1443.5 1800.5,1461.5C 1794.5,1461.5 1788.5,1461.5 1782.5,1461.5C 1782.67,1444.83 1782.5,1428.16 1782,1411.5C 1778.17,1408.25 1773.67,1406.91 1768.5,1407.5C 1765.91,1407.53 1763.41,1407.86 1761,1408.5C 1757.97,1416.59 1756.97,1424.92 1758,1433.5C 1759.09,1440.02 1760.25,1446.52 1761.5,1453C 1761.2,1455.85 1760.87,1458.68 1760.5,1461.5C 1749.83,1461.5 1739.17,1461.5 1728.5,1461.5C 1728.5,1456.83 1728.5,1452.17 1728.5,1447.5C 1733.51,1447.67 1738.51,1447.5 1743.5,1447C 1738.2,1434.19 1738.2,1421.36 1743.5,1408.5C 1740.29,1407.03 1736.96,1405.86 1733.5,1405C 1732.98,1404.44 1732.64,1403.77 1732.5,1403C 1733.94,1398.85 1735.27,1394.68 1736.5,1390.5 Z"/></g>
<g><path style="opacity:0.996" fill="#010101" d="M 1819.5,1390.5 C 1822.42,1391.48 1825.42,1392.31 1828.5,1393C 1839.5,1393.33 1850.5,1393.67 1861.5,1394C 1869.44,1396.27 1874.27,1401.44 1876,1409.5C 1876.5,1426.83 1876.67,1444.16 1876.5,1461.5C 1870.5,1461.5 1864.5,1461.5 1858.5,1461.5C 1858.97,1444.41 1858.47,1427.41 1857,1410.5C 1855.51,1409 1853.68,1408.16 1851.5,1408C 1842.17,1407.67 1832.83,1407.33 1823.5,1407C 1821.12,1406.49 1818.79,1405.82 1816.5,1405C 1816.09,1400.01 1817.09,1395.17 1819.5,1390.5 Z"/></g>
<g><path style="opacity:0.999" fill="#050505" d="M 303.5,1393.5 C 314.5,1393.5 325.5,1393.5 336.5,1393.5C 336.764,1407.86 336.431,1422.2 335.5,1436.5C 329.489,1435.93 323.489,1435.26 317.5,1434.5C 318.383,1425.53 318.716,1416.53 318.5,1407.5C 313.5,1407.5 308.5,1407.5 303.5,1407.5C 303.5,1402.83 303.5,1398.17 303.5,1393.5 Z"/></g>
<g><path style="opacity:0.999" fill="#050505" d="M 619.5,1393.5 C 630.5,1393.5 641.5,1393.5 652.5,1393.5C 652.764,1407.86 652.431,1422.2 651.5,1436.5C 645.489,1435.93 639.489,1435.26 633.5,1434.5C 634.383,1425.53 634.716,1416.53 634.5,1407.5C 629.5,1407.5 624.5,1407.5 619.5,1407.5C 619.5,1402.83 619.5,1398.17 619.5,1393.5 Z"/></g>
<g><path style="opacity:0.997" fill="#030303" d="M 672.5,1393.5 C 683.167,1393.5 693.833,1393.5 704.5,1393.5C 704.333,1404.84 704.5,1416.17 705,1427.5C 707.53,1438.92 710.363,1450.25 713.5,1461.5C 708.125,1461.83 702.792,1461.49 697.5,1460.5C 696.228,1455.68 694.561,1451.02 692.5,1446.5C 685.446,1456.53 675.779,1462.2 663.5,1463.5C 662.731,1459.26 661.731,1455.09 660.5,1451C 671.25,1447.6 679.75,1441.1 686,1431.5C 686.5,1423.51 686.666,1415.51 686.5,1407.5C 681.833,1407.5 677.167,1407.5 672.5,1407.5C 672.5,1402.83 672.5,1398.17 672.5,1393.5 Z"/></g>
<g><path style="opacity:1" fill="#040404" d="M 1274.5,1393.5 C 1284.5,1393.5 1294.5,1393.5 1304.5,1393.5C 1304.5,1416.17 1304.5,1438.83 1304.5,1461.5C 1298.5,1461.5 1292.5,1461.5 1286.5,1461.5C 1286.5,1443.5 1286.5,1425.5 1286.5,1407.5C 1282.5,1407.5 1278.5,1407.5 1274.5,1407.5C 1274.5,1402.83 1274.5,1398.17 1274.5,1393.5 Z"/></g>
<g><path style="opacity:0.999" fill="#020202" d="M 792.5,1423.5 C 798.233,1423.65 803.9,1424.31 809.5,1425.5C 808.662,1437.48 808.328,1449.48 808.5,1461.5C 802.5,1461.5 796.5,1461.5 790.5,1461.5C 790.334,1451.16 790.5,1440.83 791,1430.5C 791.29,1428.08 791.79,1425.75 792.5,1423.5 Z"/></g>
<g><path style="opacity:0.999" fill="#020202" d="M 1047.5,1423.5 C 1053.23,1423.65 1058.9,1424.31 1064.5,1425.5C 1063.66,1437.48 1063.33,1449.48 1063.5,1461.5C 1057.5,1461.5 1051.5,1461.5 1045.5,1461.5C 1045.33,1451.16 1045.5,1440.83 1046,1430.5C 1046.29,1428.08 1046.79,1425.75 1047.5,1423.5 Z"/></g>
<g><path style="opacity:0.999" fill="#020202" d="M 1817.5,1423.5 C 1823.23,1423.65 1828.9,1424.31 1834.5,1425.5C 1833.66,1437.48 1833.33,1449.48 1833.5,1461.5C 1827.5,1461.5 1821.5,1461.5 1815.5,1461.5C 1815.33,1451.16 1815.5,1440.83 1816,1430.5C 1816.29,1428.08 1816.79,1425.75 1817.5,1423.5 Z"/></g>
<g><path style="opacity:0.997" fill="#040404" d="M 727.5,1531.5 C 1034.84,1531.06 1342.17,1531.89 1649.5,1534C 1714.52,1534.54 1779.52,1535.87 1844.5,1538C 1856.5,1539.33 1856.5,1540.67 1844.5,1542C 1779.85,1544.11 1715.18,1545.44 1650.5,1546C 1341.5,1548.25 1032.5,1548.91 723.5,1548C 584.81,1547.47 446.143,1545.47 307.5,1542C 296.833,1540.67 296.833,1539.33 307.5,1538C 331.497,1537.23 355.497,1536.56 379.5,1536C 495.661,1534.19 611.661,1532.69 727.5,1531.5 Z"/></g>
</svg>
